<?xml version="1.0" encoding="UTF-8"?>
<svg xmlns="http://www.w3.org/2000/svg" width="67" height="68" viewBox="0 0 67 68" fill="none">
  <path d="M21.2129 34.7861C27.3187 34.7862 32.2686 39.736 32.2686 45.8418V55.9932C32.2685 62.0989 27.3186 67.0487 21.2129 67.0488V45.8389H0.00292969C0.00309312 39.7332 4.95295 34.7834 11.0586 34.7832H21.21L21.2129 34.7861ZM55.9443 34.7803C62.05 34.7804 66.9999 39.7302 67 45.8359H45.79V67.0459C39.6843 67.0458 34.7345 62.0959 34.7344 55.9902V45.8389L34.7373 45.8359C34.7374 39.7301 39.6871 34.7803 45.793 34.7803H55.9443ZM45.79 21.2559H67C66.9999 27.3616 62.05 32.3114 55.9443 32.3115H45.793L45.79 32.3086C39.6842 32.3085 34.7344 27.3588 34.7344 21.2529V11.1016C34.7345 4.99588 39.6843 0.0459959 45.79 0.0458984V21.2559ZM21.21 0.0458984C27.3157 0.0459966 32.2655 4.99588 32.2656 11.1016V21.2529H32.2627C32.2627 27.3588 27.3129 32.3086 21.207 32.3086H11.0557C4.94992 32.3084 0 27.3587 0 21.2529H21.21V0.0458984Z" fill="url(#paint0_linear_2550_1645)"></path>
  <defs>
    <linearGradient id="paint0_linear_2550_1645" x1="33.5" y1="0.0458984" x2="33.5" y2="67.0488" gradientUnits="userSpaceOnUse">
      <stop stop-color="#FF6150"></stop>
      <stop offset="1" stop-color="#6B12ED"></stop>
    </linearGradient>
  </defs>
</svg>
