<?xml version="1.0" encoding="UTF-8"?>
<svg xmlns="http://www.w3.org/2000/svg" width="54" height="47" viewBox="0 0 54 47" fill="none">
  <path d="M48.5808 23.6747H40.2804V17.0344C40.2804 13.3718 43.2582 10.3941 46.9207 10.3941H47.7508C49.1307 10.3941 50.2409 9.2839 50.2409 7.90395V2.92371C50.2409 1.54377 49.1307 0.433594 47.7508 0.433594H46.9207C37.7488 0.433594 30.3199 7.86245 30.3199 17.0344V41.9356C30.3199 44.6851 32.5506 46.9158 35.3002 46.9158H48.5808C51.3303 46.9158 53.561 44.6851 53.561 41.9356V28.655C53.561 25.9054 51.3303 23.6747 48.5808 23.6747ZM18.6994 23.6747H10.399V17.0344C10.399 13.3718 13.3767 10.3941 17.0393 10.3941H17.8693C19.2493 10.3941 20.3594 9.2839 20.3594 7.90395V2.92371C20.3594 1.54377 19.2493 0.433594 17.8693 0.433594H17.0393C7.86733 0.433594 0.438477 7.86245 0.438477 17.0344V41.9356C0.438477 44.6851 2.66921 46.9158 5.41872 46.9158H18.6994C21.4489 46.9158 23.6796 44.6851 23.6796 41.9356V28.655C23.6796 25.9054 21.4489 23.6747 18.6994 23.6747Z" fill="url(#paint0_linear_2550_1654)"></path>
  <defs>
    <linearGradient id="paint0_linear_2550_1654" x1="26.9998" y1="0.433594" x2="26.9998" y2="57.9996" gradientUnits="userSpaceOnUse">
      <stop stop-color="#FF6150"></stop>
      <stop offset="1" stop-color="#6B12ED"></stop>
    </linearGradient>
  </defs>
</svg>
