<?xml version="1.0" encoding="UTF-8"?>
<svg xmlns="http://www.w3.org/2000/svg" width="64" height="63" viewBox="0 0 64 63" fill="none">
  <path d="M59.3945 33.0215C62.1132 36.2213 63.7675 40.3296 63.7676 44.8105C63.7676 54.8374 55.605 63 45.5781 63C35.5515 62.9999 27.6003 55.1025 27.3896 45.2383H23.0703C22.6975 45.1841 22.3786 45.0751 22.1621 44.8105C21.7354 44.2752 21.7357 43.5299 22.2168 43.0488C25.2603 39.9572 28.3521 36.9129 31.3896 33.8213C31.8708 33.3947 32.6707 33.3945 33.0977 33.8213H33.1035L42.3301 43.0488C42.7571 43.53 42.8117 44.2756 42.3848 44.7568C42.1201 45.0756 41.7948 45.1841 41.4219 45.2383H37.1514C37.362 49.665 41.0431 53.2381 45.5781 53.2383C50.1134 53.2383 54.0049 49.448 54.0049 44.8105C54.0047 41.9837 52.5672 39.4213 50.3779 37.9297C53.8485 37.0756 56.9405 35.3673 59.3945 33.0215ZM19.0166 21.3887C19.4978 20.9617 20.2435 21.0163 20.7246 21.4434L29.8975 30.6699C30.3786 31.097 30.3786 31.8967 29.8975 32.3779C26.8539 35.4215 23.8163 38.5133 20.7246 41.5508C20.2436 42.0318 19.4982 42.0321 18.9629 41.6055C18.6982 41.3949 18.5893 41.0692 18.5352 40.6963V36.3779C14.1084 36.5886 10.5353 40.2697 10.5352 44.8047C10.5352 49.3399 14.3254 53.2314 18.9629 53.2314C21.7897 53.2313 24.3521 51.7938 25.8438 49.6045C26.6979 53.0691 28.4061 56.1676 30.752 58.6758C27.5521 61.3403 23.4438 62.994 18.9629 62.9941C9.09269 62.9941 1.0288 55.0848 0.779297 45.2734L0.773438 44.8105C0.773658 34.8863 8.67099 26.8327 18.5352 26.6221V22.3516C18.5893 21.9786 18.6978 21.6052 19.0166 21.3887ZM45.584 0C55.6108 0 63.7734 8.16262 63.7734 18.1895C63.7732 28.1138 55.8278 36.1673 46.0117 36.3779V40.6963C45.9576 41.0692 45.8009 41.3889 45.5303 41.6055C44.995 42.0323 44.2493 42.0319 43.8223 41.5508L34.5947 32.3779C34.114 31.8968 34.1141 31.0973 34.5947 30.6162C37.6864 27.5727 40.7306 24.535 43.8223 21.4434C44.2493 20.9622 45.0491 20.9617 45.5303 21.3887C45.849 21.6533 45.9576 21.9241 46.0117 22.2969V26.6162C50.4384 26.4056 54.0115 22.7244 54.0117 18.1895C54.0117 13.6542 50.2215 9.76172 45.584 9.76172C42.7032 9.76186 40.1952 11.1996 38.6494 13.3887C37.8494 9.91825 36.1406 6.82647 33.7949 4.31836C36.9406 1.65384 41.103 0.000102189 45.584 0ZM18.9629 0C28.8872 0.00022046 36.9407 7.94567 37.1514 17.7617H41.4697C41.8427 17.8159 42.1082 17.9244 42.3789 18.2432C42.8058 18.7244 42.8053 19.5242 42.3242 19.9512C39.2326 23.0428 36.1889 26.0871 33.1514 29.1787C32.6703 29.6053 31.8708 29.6053 31.3896 29.1787L22.2168 19.9512C21.7356 19.5242 21.7352 18.7785 22.1621 18.2432C22.3726 17.9245 22.6975 17.8159 23.0703 17.7617H27.3896C27.179 13.335 23.4437 9.76194 18.9629 9.76172C14.4818 9.76172 10.5352 13.552 10.5352 18.1895C10.5353 21.0704 11.9733 23.5783 14.1084 25.124C10.6919 25.924 7.6 27.6327 5.0918 29.9785C2.37315 26.8328 0.773536 22.6704 0.773438 18.1895C0.773438 8.16262 8.93606 0 18.9629 0Z" fill="url(#paint0_linear_2393_3421)"></path>
  <defs>
    <linearGradient id="paint0_linear_2393_3421" x1="32.2734" y1="0" x2="32.2734" y2="63" gradientUnits="userSpaceOnUse">
      <stop stop-color="#FF6150"></stop>
      <stop offset="1" stop-color="#6B12ED"></stop>
    </linearGradient>
  </defs>
</svg>
