<?xml version="1.0" encoding="UTF-8"?>
<svg xmlns="http://www.w3.org/2000/svg" width="64" height="64" viewBox="0 0 64 64" fill="none">
  <path d="M47.957 35.3379C50.4915 42.41 51.6065 49.9488 51.1982 57.6006C45.718 61.7164 38.8805 64.112 31.4971 63.9961C28.488 63.9487 25.5826 63.487 22.834 62.667C33.9135 56.4552 42.6488 46.9725 47.957 35.3379ZM0.861328 39.4014C10.1199 44.9033 20.5725 47.7685 31.2979 47.7686C33.2202 47.7686 35.1514 47.6757 37.0859 47.4902C32.2272 53.2222 26.2539 57.9583 19.4209 61.4307C10.1891 57.4809 3.21184 49.3225 0.861328 39.4014ZM42.8691 19.8496C50.2616 21.1909 57.3492 23.9947 63.7725 28.1748C63.9412 29.5916 64.0191 31.0357 63.9961 32.502C63.8551 41.4827 60.0258 49.5403 53.9756 55.2578C54.1329 42.5615 50.2883 30.2601 42.8691 19.8496ZM10.0244 8.74219C9.86702 21.4388 13.7115 33.7398 21.1309 44.1504C13.7382 42.8091 6.6507 40.0054 0.227539 35.8252C0.0587352 34.4082 -0.0191125 32.9634 0.00390625 31.4971C0.145077 22.5164 3.97428 14.4596 10.0244 8.74219ZM32.5029 0.00390625C35.512 0.051175 38.4173 0.513 41.166 1.33301C30.0863 7.54477 21.3513 17.0274 16.043 28.6621C13.5086 21.59 12.3935 14.0512 12.8018 6.39941C18.282 2.2836 25.1197 -0.112025 32.5029 0.00390625ZM44.5781 2.56934C53.8117 6.51979 60.7903 14.68 63.1396 24.6035C52.2208 18.1149 39.6424 15.2915 26.9121 16.5117C31.7711 10.7788 37.7444 6.04212 44.5781 2.56934Z" fill="url(#paint0_linear_2410_762)"></path>
  <defs>
    <linearGradient id="paint0_linear_2410_762" x1="32" y1="0" x2="32" y2="64" gradientUnits="userSpaceOnUse">
      <stop stop-color="#FF6150"></stop>
      <stop offset="1" stop-color="#6B12ED"></stop>
    </linearGradient>
  </defs>
</svg>
