<?xml version="1.0" encoding="UTF-8"?>
<svg xmlns="http://www.w3.org/2000/svg" width="71" height="71" viewBox="0 0 71 71" fill="none">
  <path d="M19.9116 20.1523C23.75 16.3292 29.9858 16.3294 33.8081 20.1523C37.6304 23.9917 37.6304 30.2286 33.8081 34.0518C31.8646 35.9795 30.5525 38.4261 30.0181 41.1152C29.6456 42.9619 29.6456 44.8248 30.0181 46.6553C30.5525 49.3444 31.8646 51.7748 33.8081 53.7188C35.7516 55.6627 38.1973 56.9751 40.8696 57.5098C42.7159 57.8823 44.5786 57.8823 46.4087 57.5098C49.081 56.9752 51.5267 55.6627 53.4702 53.7188C57.2924 49.8956 63.5278 49.8958 67.3501 53.7188C69.2127 55.5817 70.2339 58.0446 70.2339 60.6689C70.2338 63.2932 69.2125 65.7715 67.3501 67.6182C65.4877 69.4809 63.0264 70.5018 60.4028 70.502C57.7791 70.502 55.3009 69.4811 53.4546 67.6182C51.5111 65.6742 49.0653 64.3618 46.3931 63.8271C44.5468 63.4546 42.684 63.4546 40.854 63.8271C38.1817 64.3617 35.736 65.6743 33.7925 67.6182C31.9461 69.4812 29.4836 70.502 26.8599 70.502C24.2362 70.5019 21.7741 69.4811 19.9116 67.6182C18.0493 65.7553 17.0289 63.293 17.0288 60.6689C17.0288 58.0447 18.0654 55.5655 19.9116 53.7188C21.8552 51.7748 23.1672 49.3445 23.7017 46.6553C24.0741 44.8086 24.0742 42.9457 23.7017 41.1152C23.1672 38.4261 21.8552 35.9957 19.9116 34.0518C16.0897 30.2124 16.0896 23.9916 19.9116 20.1523ZM3.1333 36.9521C6.9556 33.1291 13.1909 33.129 17.0132 36.9521L17.0288 36.9678C18.8914 38.8308 19.9116 41.2936 19.9116 43.918C19.9116 46.5261 18.8913 49.0048 17.0288 50.8516C15.1015 52.763 12.6071 53.7188 10.0806 53.7188C7.55426 53.7186 5.0443 52.7628 3.1333 50.8516C-0.68899 47.0122 -0.68899 40.7915 3.1333 36.9521ZM43.6392 0.501953C46.2629 0.501953 48.741 1.53897 50.5874 3.38574C52.4499 5.24862 53.4701 7.71075 53.4702 10.335C53.4702 12.9593 52.45 15.4384 50.5874 17.2852C48.6439 19.2291 47.3318 21.6757 46.7974 24.3486C46.425 26.1466 46.425 28.0579 46.7974 29.8721C47.3318 32.545 48.6439 34.9916 50.5874 36.9355C52.45 38.7985 53.4702 41.2614 53.4702 43.8857C53.4701 46.51 52.4499 48.9883 50.5874 50.835C48.6601 52.7465 46.1658 53.7021 43.6392 53.7021C41.1126 53.7021 38.602 52.7465 36.6909 50.835C32.8689 46.9956 32.8688 40.7748 36.6909 36.9355C38.6345 34.9916 39.9465 32.5613 40.481 29.8721C40.8534 28.0741 40.8534 26.1628 40.481 24.3486C39.9465 21.6594 38.6345 19.2125 36.6909 17.2686C34.7474 15.3248 32.3016 14.0131 29.6294 13.4785C27.7831 13.106 25.9204 13.1059 24.0903 13.4785C21.4181 14.0132 18.9722 15.3247 17.0288 17.2686C15.1663 19.1315 12.7043 20.1523 10.0806 20.1523L10.0972 20.1689C7.47339 20.1689 5.01148 19.1481 3.14893 17.2852C1.2864 15.4222 0.266113 12.9593 0.266113 10.335C0.26623 7.71075 1.28647 5.24805 3.14893 3.40137C6.9712 -0.437778 13.2066 -0.437255 17.0288 3.38574C18.9723 5.32967 21.4181 6.64213 24.0903 7.17676C25.9366 7.54933 27.7994 7.54928 29.6294 7.17676C32.3017 6.64218 34.7474 5.32961 36.6909 3.38574C38.5534 1.52281 41.0155 0.502016 43.6392 0.501953ZM53.4546 20.1689C57.293 16.3459 63.5278 16.3459 67.3501 20.1689C71.1724 24.0083 71.1724 30.2452 67.3501 34.0684C65.4391 35.9797 62.913 36.9354 60.4028 36.9355C57.8925 36.9355 55.3657 35.9798 53.4546 34.0684C49.6323 30.229 49.6323 24.0083 53.4546 20.1689Z" fill="url(#paint0_linear_2941_1831)"></path>
  <defs>
    <linearGradient id="paint0_linear_2941_1831" x1="35.25" y1="0.501953" x2="35.25" y2="70.502" gradientUnits="userSpaceOnUse">
      <stop stop-color="#FF6150"></stop>
      <stop offset="1" stop-color="#6B12ED"></stop>
    </linearGradient>
  </defs>
</svg>
