<?xml version="1.0" encoding="UTF-8"?>
<svg xmlns="http://www.w3.org/2000/svg" width="41" height="41" viewBox="0 0 41 41" fill="none">
  <path d="M20.5977 0.417969C25.9002 0.423972 30.984 2.53279 34.7334 6.28223C38.4828 10.0317 40.5917 15.1155 40.5977 20.418C40.5976 24.3735 39.4251 28.2404 37.2275 31.5293C35.0299 34.8183 31.9055 37.3817 28.251 38.8955C24.5966 40.4091 20.5757 40.8048 16.6963 40.0332C12.8167 39.2615 9.25214 37.3566 6.45508 34.5596C3.65823 31.7626 1.75312 28.1988 0.981445 24.3193C0.209832 20.4398 0.606404 16.4181 2.12012 12.7637C3.6339 9.10931 6.19745 5.98564 9.48633 3.78809C12.7753 1.59054 16.6421 0.417969 20.5977 0.417969ZM17.9512 1.94336C15.3279 2.31767 12.8148 3.24976 10.582 4.67676C11.2457 5.48481 11.7941 6.38131 12.2119 7.33984C12.8595 7.82152 13.3673 8.467 13.6826 9.20996C13.9038 9.98686 13.9312 10.8069 13.7617 11.5967C14.0877 12.5901 14.6438 14.6003 14.1445 15.4756C13.6785 16.2909 12.3112 16.7888 11.6865 16.9795C11.0667 17.9064 10.1044 18.55 9.01074 18.7676C8.80116 18.7736 8.59429 18.8207 8.40332 18.9072C8.21235 18.9938 8.04016 19.1179 7.89746 19.2715C7.75489 19.425 7.6445 19.606 7.57227 19.8027C7.50009 19.9994 7.4672 20.2086 7.47656 20.418C7.47666 21.402 8.33072 23.0689 8.7627 23.8115C9.35801 24.1175 10.4109 24.7331 10.667 25.373C10.856 25.9853 10.9677 26.6188 11 27.2588C11.338 27.8968 12.4554 30.2389 11.5674 31.8389C11.152 32.365 10.5744 32.7396 9.9248 32.9053L8.67871 34.7715C12.0233 37.5617 16.242 39.089 20.5977 39.085C24.0486 39.0871 27.4325 38.1315 30.373 36.3252C33.3136 34.5188 35.6958 31.9318 37.2539 28.8525C38.812 25.7733 39.4855 22.3219 39.1992 18.8828C38.9129 15.4438 37.6785 12.1513 35.6328 9.37207C34.1501 9.95064 32.6277 10.4237 31.0781 10.7871C30.4493 11.4579 28.5772 13.2988 26.96 13.2988C26.8675 13.2993 26.7751 13.2922 26.6836 13.2793C24.9019 13.029 23.2006 11.1752 23.124 11.0908L22.9434 10.8906L22.9512 10.624C22.9931 9.72387 22.957 8.82148 22.8418 7.92773L22.5947 7.99414C21.9474 8.17214 20.9737 8.44948 20.1797 7.81348C19.3858 7.17745 19.3939 5.96237 19.4893 5.21973C18.7339 4.93239 17.8364 4.46882 17.6084 3.84082C17.4803 3.18785 17.6027 2.51026 17.9512 1.94336ZM21.5967 16.5977C22.3013 16.365 24.0227 15.8415 24.7881 16.0361C25.4745 16.2697 26.1315 16.5824 26.7451 16.9688C27.9438 17.0556 29.1235 17.3167 30.2471 17.7432L30.3848 17.8408L31.5537 18.9072C32.6384 19.2226 34.9555 20.4095 35.3828 21.4229C35.9819 22.8476 34.5245 25.8455 33.1973 26.5068C32.2388 26.9352 31.4 27.5927 30.7549 28.4209C30.6392 28.6586 30.5386 28.9038 30.4541 29.1543C30.0394 30.2749 29.4711 31.8078 28.2812 32.2744C27.7301 32.5552 27.2041 32.8831 26.709 33.2539C25.345 34.1919 23.8224 35.2402 22.5498 35.2402C22.3683 35.2425 22.1872 35.2193 22.0117 35.1729C21.6715 35.0642 21.3626 34.8739 21.1133 34.6182C20.8641 34.3625 20.682 34.0489 20.582 33.7061C20.2983 32.8051 20.2008 31.8558 20.2959 30.916C20.391 29.9764 20.6764 29.066 21.1348 28.2402C21.4721 27.7163 21.1927 26.3694 21.0254 25.5693C20.9531 25.2629 20.8989 24.9516 20.8643 24.6387C20.5811 24.2669 20.2585 23.9265 19.9023 23.624C19.1518 22.9141 18.502 22.3033 18.502 21.624C18.5024 20.2806 20.638 17.597 21.292 16.8057L21.415 16.6582L21.5967 16.5977Z" fill="url(#paint0_linear_2941_2032)"></path>
  <defs>
    <linearGradient id="paint0_linear_2941_2032" x1="20.5975" y1="0.417969" x2="20.5975" y2="40.4176" gradientUnits="userSpaceOnUse">
      <stop stop-color="#FF6150"></stop>
      <stop offset="1" stop-color="#6B12ED"></stop>
    </linearGradient>
  </defs>
</svg>
