<?xml version="1.0" encoding="UTF-8"?>
<svg xmlns="http://www.w3.org/2000/svg" width="68" height="68" viewBox="0 0 68 68" fill="none">
  <path d="M50.4399 35.7197C50.5983 35.9177 50.7377 36.1358 50.896 36.3535C51.0938 36.6304 51.2912 36.9272 51.4692 37.2041C51.6078 37.4218 51.7467 37.6602 51.8853 37.8779C52.0633 38.1747 52.2221 38.4718 52.3804 38.7686C52.4991 39.0059 52.6181 39.2235 52.7368 39.4609C52.8753 39.7578 53.0133 40.075 53.1519 40.3916C53.2508 40.6092 53.3498 40.8466 53.4487 41.084C53.5872 41.4006 53.6865 41.7369 53.8052 42.0732C53.8843 42.3108 53.9633 42.5291 54.0425 42.7666C54.1414 43.1228 54.2209 43.4788 54.3198 43.835C54.3792 44.0525 54.4579 44.2902 54.4976 44.5078C54.5767 44.9037 54.656 45.3002 54.7153 45.7158C54.7549 45.9137 54.7952 46.0921 54.8149 46.29C54.8941 46.8836 54.9531 47.497 54.9927 48.1104C55.0322 48.5457 55.0327 49.001 55.0327 49.4561C55.0327 53.3949 54.0225 57.2747 52.063 60.7188C52.0433 60.7385 52.0241 60.7781 52.0239 60.8174C51.7073 61.3715 51.3706 61.9259 50.9946 62.4404C50.9748 62.4602 50.9549 62.5005 50.9351 62.54C50.5789 63.0545 50.1834 63.5495 49.7876 64.0244V64.0635C46.2645 65.9042 42.4838 67.0725 38.5649 67.5674C32.6469 68.3195 26.8868 67.5273 21.5229 65.3105C21.4842 65.3105 21.4069 65.273 21.4038 65.2715C17.465 63.6287 13.9219 61.2732 10.854 58.2646C8.73613 56.1864 6.93517 53.89 5.45068 51.3564C5.60896 51.4356 5.76702 51.4756 5.92529 51.5547C6.4795 51.7922 7.03391 52.0296 7.60791 52.2275C7.84541 52.3067 8.10257 52.4062 8.35986 52.4854C8.95354 52.6635 9.54744 52.841 10.1411 52.9795C10.3786 53.0389 10.6165 53.0988 10.854 53.1582C10.9133 53.178 10.9529 53.1972 11.0122 53.1973C11.5466 53.2962 12.0618 53.3954 12.5962 53.4746C12.794 53.4944 13.0117 53.5144 13.2095 53.5342C13.348 53.554 13.5065 53.5732 13.645 53.5732C14.4762 53.6524 15.327 53.7119 16.1978 53.7119C21.1657 53.7119 25.9558 52.2867 30.0728 49.5752H30.0933C30.1327 49.5358 30.172 49.5158 30.2114 49.4961C30.6469 49.1794 31.1024 48.8824 31.5181 48.5459L32.3296 48.0713C32.3486 48.0522 32.4226 48.0145 32.4282 48.0117L47.4321 39.3623C48.0852 38.9863 48.6388 38.4911 49.0347 37.9766C49.6285 37.2442 50.0245 36.3531 50.2026 35.4229C50.2817 35.5217 50.3609 35.6209 50.4399 35.7197ZM45.2153 2.62598C49.0749 3.95212 52.6376 5.9513 55.7847 8.60352H55.8237C63.4837 14.9769 67.8589 24.3389 67.8589 34.2949C67.8589 35.4033 67.8192 36.3734 67.7202 37.3037C66.8889 46.7648 62.1184 55.2757 54.6763 60.9365C54.8742 60.5407 55.0323 60.1246 55.2104 59.709C55.3885 59.3331 55.5668 58.9376 55.7251 58.542C55.9626 57.968 56.1407 57.3536 56.3188 56.7598C56.4375 56.3641 56.5764 55.9884 56.6753 55.5928C56.8534 54.9198 56.952 54.2465 57.0708 53.5537C57.1302 53.2172 57.2099 52.8804 57.2495 52.5439C57.3682 51.5148 57.4468 50.4854 57.4468 49.4365C57.4468 48.9418 57.4278 48.4469 57.3882 47.9521C57.0517 42.3508 54.9734 37.1847 51.3315 32.9688C51.3117 32.9094 51.2713 32.8694 51.2515 32.8496C50.8953 32.4341 50.5395 32.038 50.1636 31.6621C50.0646 31.5632 49.9451 31.4642 49.8462 31.3652C49.6088 31.108 49.3514 30.8504 49.0942 30.6328C48.639 30.0787 48.0847 29.6043 47.4712 29.248L47.2144 29.0889C47.1751 29.0692 47.0965 29.0309 47.0952 29.0303L31.4985 20.0439C31.0829 19.8262 30.6864 19.6481 30.2905 19.5293C28.7667 19.0544 27.1045 19.272 25.7983 19.9844C25.8181 19.9054 25.8372 19.8066 25.8569 19.7275C26.0549 18.8764 26.313 18.0645 26.6099 17.2529C26.6494 17.1739 26.669 17.0947 26.7085 17.0156C27.0054 16.2635 27.3422 15.5114 27.7183 14.7988C27.7776 14.6801 27.8364 14.5409 27.9155 14.4023C28.3113 13.6504 28.7665 12.9182 29.2612 12.2256C29.3602 12.087 29.4591 11.9481 29.5581 11.8096C30.0727 11.097 30.6271 10.4042 31.2407 9.75098C34.6847 6.04968 39.3168 3.55566 44.3442 2.74414C44.6213 2.70456 44.9185 2.66555 45.2153 2.62598ZM17.3862 5.33789C24.1554 1.37939 32.2304 -0.105376 40.1079 1.2998C40.0685 1.3001 40.0291 1.33877 39.9897 1.33887C39.0992 1.63572 38.248 1.97237 37.397 2.36816C37.1991 2.44733 37.0207 2.54656 36.8228 2.64551C36.0311 3.04133 35.2591 3.45692 34.5269 3.91211C34.4675 3.97145 34.3882 4.01122 34.3091 4.05078C33.5174 4.5654 32.7651 5.12007 32.0327 5.71387C31.8546 5.85239 31.6961 6.01091 31.5181 6.14941C30.7858 6.76291 30.093 7.41576 29.4399 8.1084C25.7387 12.0868 23.4628 16.9955 22.8491 22.3594V22.4189C22.77 23.171 22.7097 23.943 22.6899 24.7148V43.499C22.69 44.4292 22.9084 45.3001 23.3042 46.0918C23.9573 47.3782 25.0654 48.3679 26.3716 48.9023C26.2925 48.9419 26.2134 48.9819 26.1343 49.0215C25.5604 49.3183 24.9665 49.5555 24.353 49.793C23.977 49.9315 23.5809 50.0697 23.1851 50.1885C22.9872 50.2478 22.7697 50.3078 22.5718 50.3672C17.5443 51.8121 12.0413 51.5151 7.11279 49.417C6.99409 49.3577 6.8555 49.2986 6.73682 49.2393C6.36075 49.0809 6.00422 48.9027 5.64795 48.7246C5.17297 48.4871 4.69812 48.2097 4.22314 47.9326C4.18356 47.893 4.12432 47.8726 4.06494 47.833H4.0249L4.04541 47.873C3.86727 47.7543 3.70864 47.6549 3.55029 47.5361C1.74928 43.36 0.838437 38.9267 0.838379 34.335C0.838379 33.5432 0.858101 32.7708 0.91748 31.9395C0.937275 31.4644 0.977245 31.0092 1.03662 30.5342C1.05638 30.4749 1.05615 30.4156 1.05615 30.376C2.26354 19.9845 8.40012 10.6425 17.3862 5.33789Z" fill="url(#paint0_linear_2941_2072)"></path>
  <defs>
    <linearGradient id="paint0_linear_2941_2072" x1="34.3486" y1="0.78125" x2="34.3486" y2="67.844" gradientUnits="userSpaceOnUse">
      <stop stop-color="#FF6150"></stop>
      <stop offset="1" stop-color="#6B12ED"></stop>
    </linearGradient>
  </defs>
</svg>
