<?xml version="1.0" encoding="UTF-8"?>
<svg xmlns="http://www.w3.org/2000/svg" width="62" height="71" viewBox="0 0 62 71" fill="none">
  <path d="M31.0944 39.8301C47.9307 39.8301 61.611 53.4719 61.611 70.3379H46.3336C46.3336 61.8881 39.5146 55.0694 31.0944 55.0693C22.674 55.0693 15.8639 61.888 15.8639 70.3379H0.586548C0.586548 53.4761 14.2664 39.8301 31.0944 39.8301ZM15.8639 9.32617C15.864 17.7759 22.6741 24.5947 31.0944 24.5947C39.5146 24.5947 46.3335 17.7759 46.3336 9.32617H61.611C61.6109 26.1878 47.9307 39.83 31.0944 39.8301C14.2664 39.8301 0.586641 26.1879 0.586548 9.32617H15.8639ZM31.0983 0.337891C35.5479 0.337891 39.1548 3.94488 39.1549 8.39453C39.1549 12.8443 35.548 16.4521 31.0983 16.4521C26.6486 16.4521 23.0416 12.8442 23.0416 8.39453C23.0417 3.94494 26.6487 0.337981 31.0983 0.337891Z" fill="url(#paint0_linear_2941_2063)"></path>
  <defs>
    <linearGradient id="paint0_linear_2941_2063" x1="31.0987" y1="0.337891" x2="31.0987" y2="70.3379" gradientUnits="userSpaceOnUse">
      <stop stop-color="#FF6150"></stop>
      <stop offset="1" stop-color="#6B12ED"></stop>
    </linearGradient>
  </defs>
</svg>
