<?xml version="1.0" encoding="UTF-8"?>
<svg xmlns="http://www.w3.org/2000/svg" width="44" height="31" viewBox="0 0 44 31" fill="none">
  <path d="M21.8491 0.705078C32.4582 0.705357 40.0596 9.97027 42.8354 13.959C43.1836 14.4651 43.3693 15.0654 43.3677 15.6797C43.366 16.294 43.1767 16.8933 42.8257 17.3975C40.0237 21.3881 32.3739 30.653 21.8491 30.6533C11.2268 30.6533 3.63302 21.3765 0.86084 17.3867C0.516201 16.8846 0.331125 16.2897 0.32959 15.6807C0.328087 15.0716 0.51084 14.4756 0.853027 13.9717C3.59917 9.97988 11.1475 0.705078 21.8491 0.705078ZM25.0718 7.89746C23.5328 7.26001 21.8394 7.09302 20.2056 7.41797C18.5717 7.74297 17.071 8.54565 15.8931 9.72363C14.7151 10.9016 13.9124 12.4022 13.5874 14.0361C13.2625 15.6699 13.4294 17.3633 14.0669 18.9023C14.7044 20.4415 15.7843 21.7571 17.1694 22.6826C18.5545 23.6081 20.1833 24.1025 21.8491 24.1025C24.0829 24.1024 26.2247 23.2143 27.8042 21.6348C29.3838 20.0551 30.272 17.9126 30.272 15.6787C30.2719 14.0131 29.7774 12.385 28.8521 11C27.9265 9.61484 26.6109 8.53498 25.0718 7.89746Z" fill="url(#paint0_linear_2941_2048)"></path>
  <defs>
    <linearGradient id="paint0_linear_2941_2048" x1="21.8486" y1="0.705078" x2="21.8486" y2="30.6533" gradientUnits="userSpaceOnUse">
      <stop stop-color="#FF6150"></stop>
      <stop offset="1" stop-color="#6B12ED"></stop>
    </linearGradient>
  </defs>
</svg>
