<?xml version="1.0" encoding="UTF-8"?>
<svg xmlns="http://www.w3.org/2000/svg" width="45" height="41" viewBox="0 0 45 41" fill="none">
  <path d="M23.162 24.6562C24.6545 24.6562 26.1474 24.9068 27.5145 25.5098H27.5204C30.2426 26.7098 32.2361 28.9424 32.2362 32.2139V38.3574C29.2453 39.8379 25.8725 40.6796 22.3026 40.6797C18.7325 40.6797 15.365 39.844 12.368 38.3574V32.2139C12.3681 28.9423 14.3625 26.7097 17.0848 25.5098C18.4519 24.9069 19.944 24.6563 21.4364 24.6562H23.162ZM11.0126 12.668C12.3797 12.668 13.7527 12.8951 15.0243 13.3965C14.3737 14.5844 13.9979 15.9459 13.9979 17.3965H14.0038C14.0039 19.0023 14.4638 20.4952 15.2518 21.7607C10.7623 23.7965 8.18939 27.593 8.18933 32.2139V35.6709C4.69092 32.8292 2.06952 28.9486 0.79187 24.501C0.39187 23.1159 0.218628 21.6704 0.218628 20.2256C0.218779 16.9541 2.21314 14.7214 4.93542 13.5215C6.3024 12.9186 7.79467 12.668 9.28699 12.668H11.0126ZM35.3114 12.668C36.8039 12.668 38.2968 12.9185 39.6639 13.5215H39.6698C42.3919 14.7215 44.3855 16.9543 44.3856 20.2256C44.3856 21.6704 44.2124 23.1159 43.8124 24.501C42.5347 28.9485 39.9143 32.8232 36.4159 35.6709V32.2139C36.4158 27.5932 33.8426 23.7966 29.3534 21.7607C30.1414 20.4892 30.6004 18.9963 30.6005 17.3965C30.6005 15.9459 30.2307 14.5845 29.5741 13.3965C30.8457 12.895 32.2127 12.668 33.5858 12.668H35.3114ZM22.2968 12.668C24.9055 12.6682 27.0243 14.7877 27.0243 17.3965C27.0241 20.0051 24.9054 22.1238 22.2968 22.124C19.6879 22.124 17.5684 20.0053 17.5682 17.3965C17.5682 14.7875 19.6878 12.668 22.2968 12.668ZM10.1473 0.679688C12.7586 0.679818 14.8759 2.79688 14.8759 5.4082C14.8758 8.01945 12.7586 10.1366 10.1473 10.1367C7.53599 10.1367 5.41891 8.01953 5.41882 5.4082C5.41882 2.7968 7.53594 0.679688 10.1473 0.679688ZM34.4452 0.679688C37.0566 0.679688 39.1737 2.7968 39.1737 5.4082C39.1736 8.01953 37.0565 10.1367 34.4452 10.1367C31.834 10.1365 29.7177 8.01939 29.7177 5.4082C29.7177 2.79694 31.834 0.679912 34.4452 0.679688Z" fill="url(#paint0_linear_2941_2077)"></path>
  <defs>
    <linearGradient id="paint0_linear_2941_2077" x1="22.3021" y1="0.679687" x2="22.3021" y2="40.6797" gradientUnits="userSpaceOnUse">
      <stop stop-color="#FF6150"></stop>
      <stop offset="1" stop-color="#6B12ED"></stop>
    </linearGradient>
  </defs>
</svg>
