<?xml version="1.0" encoding="UTF-8"?>
<svg xmlns="http://www.w3.org/2000/svg" width="71" height="63" viewBox="0 0 71 63" fill="none">
  <g clip-path="url(#clip0_2941_2052)">
    <path d="M10.8018 51.0488C11.0115 51.0067 11.2424 50.9855 11.4102 50.9434H11.6621C11.8089 50.9013 11.9768 50.9014 12.1865 50.9014H51.542L50.3457 52.1035C50.2408 52.1878 50.1143 52.3145 50.1143 52.3145L46.6934 55.75C42.5374 59.882 37.0382 62.1797 31.2031 62.1797H0.369141C0.41112 61.7793 0.474164 61.3788 0.537109 61.0205C0.57907 60.8519 0.621125 60.6623 0.663086 60.4727C0.789023 59.9245 0.957579 59.4181 1.14648 58.9121C1.33536 58.4063 1.56656 57.9212 1.81836 57.4365L2.1748 56.8467C2.25875 56.7202 2.32184 56.5728 2.42676 56.4463L3.07715 55.5605C3.1821 55.413 3.30814 55.2652 3.41309 55.1387L3.76953 54.7383C3.8744 54.6119 4.00068 54.5068 4.14746 54.3594C4.2734 54.2329 4.39995 54.106 4.54688 53.9795L4.90332 53.6846C4.92291 53.6649 4.96087 53.6451 4.96582 53.6426C5.09168 53.5372 5.21799 53.4525 5.38574 53.3262L5.78516 53.0312C6.18393 52.7572 6.60319 52.5034 7.04395 52.2715C7.14882 52.2083 7.25407 52.1667 7.37988 52.1035C7.7367 51.9349 8.09388 51.7657 8.51367 51.6182L8.78613 51.5127C9.18486 51.3652 9.60474 51.2597 10.0664 51.1543C10.2115 51.1127 10.3568 51.0909 10.5625 51.0498L10.3398 49.8477L10.8018 51.0488ZM64.1143 39.749C60.0423 43.8599 54.3966 46.2001 48.6455 46.2002H13.9072V46.0527C13.9072 45.6522 13.9287 45.2515 13.9707 44.8721C14.0127 44.4716 14.0757 44.0919 14.1387 43.6914C14.1596 43.5439 14.1802 43.4173 14.2432 43.1855L14.2646 43.1436L13.0264 42.8691L14.3066 42.9121C14.3486 42.7857 14.3692 42.6797 14.4111 42.5322C14.4741 42.3636 14.5162 42.1949 14.5791 42.0264C14.6001 41.9842 14.6006 41.963 14.6006 41.9209C14.6635 41.7524 14.7266 41.6049 14.7686 41.4785L14.999 40.9092C15.062 40.7616 15.1255 40.5924 15.2725 40.3184C15.3773 40.0868 15.5026 39.876 15.6074 39.6865C15.7334 39.4968 15.8389 39.3067 16.0068 39.0537C16.0278 39.0327 16.0689 38.9909 16.0693 38.9697C16.1953 38.7589 16.3424 38.5686 16.5732 38.2734C16.7201 38.0628 16.9089 37.8733 17.0977 37.6416C17.2025 37.5363 17.3078 37.4306 17.4336 37.2832C17.4739 37.2629 17.5145 37.2228 17.5176 37.2197L17.7275 37.0088C18.1472 36.5872 18.6091 36.2079 19.0918 35.8496C19.3857 35.6388 19.6798 35.4489 20.1416 35.1748L20.75 34.8379C20.8759 34.7746 21.002 34.7105 21.2959 34.584C21.4847 34.4997 21.6526 34.4368 21.8623 34.3525C22.0512 34.2893 22.2618 34.2048 22.4717 34.1416C22.6605 34.0784 22.8703 34.0154 23.1221 33.9521C23.3109 33.8889 23.5207 33.8464 23.7725 33.7832C23.9404 33.741 24.1299 33.6988 24.2979 33.6777C24.5496 33.6356 24.8015 33.5933 25.0742 33.5723C25.221 33.5512 25.3679 33.5303 25.5566 33.5303C25.8294 33.4881 26.1233 33.4883 26.417 33.4883H70.3271L64.1143 39.749ZM48.6455 16.4756C54.3965 16.4757 60.0424 18.8371 64.1143 22.9268L70.3271 29.1875H26.3965C26.1028 29.1875 25.8298 29.1455 25.4941 29.1455C25.3473 29.1455 25.221 29.1036 25.0322 29.1035C24.7594 29.0824 24.5277 29.0402 24.2549 28.998C24.0871 28.977 23.8982 28.9558 23.6885 28.8926C23.4996 28.8504 23.2894 28.7878 23.0586 28.7246C22.8489 28.6825 22.6394 28.6184 22.4297 28.5342C22.2199 28.471 22.0306 28.387 21.7998 28.3027C21.6109 28.2395 21.4423 28.1765 21.1064 28.0078C20.9807 27.9446 20.8549 27.8811 20.6035 27.7549L19.9941 27.3965V27.417C19.6795 27.2274 19.365 27.0374 19.0713 26.8057C18.5885 26.4684 18.1478 26.0886 17.707 25.667L16.8252 26.5742L17.4971 25.4561C17.4553 25.4351 17.434 25.394 17.4131 25.3936C17.3082 25.2671 17.1816 25.1617 17.0557 24.9932C16.9297 24.8456 16.7827 24.6762 16.5938 24.4443C16.5727 24.4022 16.5311 24.3389 16.4893 24.2969C16.3214 24.1282 16.1952 23.9385 16.0273 23.6855C16.0064 23.6644 15.9854 23.6221 15.9854 23.6221C15.8595 23.4324 15.7333 23.2214 15.6074 23.0107C15.4816 22.8001 15.3553 22.5895 15.1875 22.2314C15.1036 22.0629 15.0409 21.9151 14.957 21.7256L14.7471 21.1982C14.7051 21.0296 14.6421 20.8815 14.5791 20.7129C14.5583 20.6918 14.5586 20.6499 14.5586 20.6289C14.4957 20.4393 14.4535 20.2706 14.3906 20.0811C14.3697 19.9757 14.3276 19.849 14.3066 19.7227C14.2857 19.7016 14.2228 19.428 14.2227 19.4062C14.1807 19.2587 14.1597 19.1319 14.1387 18.9844C14.0757 18.6049 14.0127 18.2042 13.9707 17.8037C13.9078 17.4243 13.9072 17.0235 13.9072 16.623V16.4756H48.6455ZM31.2246 0.496094C37.0805 0.496201 42.58 2.77283 46.7148 6.92578L50.0518 10.2773C50.0723 10.3186 50.1932 10.4412 50.1982 10.4463L51.5215 11.7949H12.166L11.4727 11.7529C11.2419 11.7319 11.032 11.7111 10.8223 11.6689L10.7803 11.585L10.5283 11.542C10.3815 11.5209 10.2137 11.4997 10.0039 11.4365C9.58413 11.3311 9.16441 11.2257 8.76562 11.0781C8.76157 11.0561 8.4502 10.9521 8.4502 10.9521C8.0725 10.8257 7.69461 10.6569 7.33789 10.4883C7.21208 10.4461 7.12828 10.4036 6.98145 10.3193C6.54067 10.1085 6.14148 9.85551 5.76367 9.60254L5.32324 9.28711C5.19731 9.1817 5.05026 9.07554 4.94531 8.99121C4.90359 8.94942 4.77984 8.86691 4.77734 8.86523L4.50488 8.6123C4.39994 8.5069 4.29437 8.40107 4.10547 8.23242C3.97951 8.10591 3.76953 7.89551 3.76953 7.89551L3.39258 7.49512C3.26664 7.36863 3.16108 7.22058 2.99316 7.00977L2.38477 6.16699C2.30081 6.06159 2.21677 5.93468 2.13281 5.78711L1.79688 5.19727C1.545 4.73347 1.31391 4.24814 1.125 3.74219C0.93616 3.2364 0.768494 2.73053 0.642578 2.18262C0.600607 2.014 0.558572 1.8239 0.516602 1.65527C0.453653 1.297 0.390612 0.896513 0.348633 0.496094H31.2246Z" fill="#E6E7E8"></path>
    <path d="M10.8018 51.0488C11.0115 51.0067 11.2424 50.9855 11.4102 50.9434H11.6621C11.8089 50.9013 11.9768 50.9014 12.1865 50.9014H51.542L50.3457 52.1035C50.2408 52.1878 50.1143 52.3145 50.1143 52.3145L46.6934 55.75C42.5374 59.882 37.0382 62.1797 31.2031 62.1797H0.369141C0.41112 61.7793 0.474164 61.3788 0.537109 61.0205C0.57907 60.8519 0.621125 60.6623 0.663086 60.4727C0.789023 59.9245 0.957579 59.4181 1.14648 58.9121C1.33536 58.4063 1.56656 57.9212 1.81836 57.4365L2.1748 56.8467C2.25875 56.7202 2.32184 56.5728 2.42676 56.4463L3.07715 55.5605C3.1821 55.413 3.30814 55.2652 3.41309 55.1387L3.76953 54.7383C3.8744 54.6119 4.00068 54.5068 4.14746 54.3594C4.2734 54.2329 4.39995 54.106 4.54688 53.9795L4.90332 53.6846C4.92291 53.6649 4.96087 53.6451 4.96582 53.6426C5.09168 53.5372 5.21799 53.4525 5.38574 53.3262L5.78516 53.0312C6.18393 52.7572 6.60319 52.5034 7.04395 52.2715C7.14882 52.2083 7.25407 52.1667 7.37988 52.1035C7.7367 51.9349 8.09388 51.7657 8.51367 51.6182L8.78613 51.5127C9.18486 51.3652 9.60474 51.2597 10.0664 51.1543C10.2115 51.1127 10.3568 51.0909 10.5625 51.0498L10.3398 49.8477L10.8018 51.0488ZM64.1143 39.749C60.0423 43.8599 54.3966 46.2001 48.6455 46.2002H13.9072V46.0527C13.9072 45.6522 13.9287 45.2515 13.9707 44.8721C14.0127 44.4716 14.0757 44.0919 14.1387 43.6914C14.1596 43.5439 14.1802 43.4173 14.2432 43.1855L14.2646 43.1436L13.0264 42.8691L14.3066 42.9121C14.3486 42.7857 14.3692 42.6797 14.4111 42.5322C14.4741 42.3636 14.5162 42.1949 14.5791 42.0264C14.6001 41.9842 14.6006 41.963 14.6006 41.9209C14.6635 41.7524 14.7266 41.6049 14.7686 41.4785L14.999 40.9092C15.062 40.7616 15.1255 40.5924 15.2725 40.3184C15.3773 40.0868 15.5026 39.876 15.6074 39.6865C15.7334 39.4968 15.8389 39.3067 16.0068 39.0537C16.0278 39.0327 16.0689 38.9909 16.0693 38.9697C16.1953 38.7589 16.3424 38.5686 16.5732 38.2734C16.7201 38.0628 16.9089 37.8733 17.0977 37.6416C17.2025 37.5363 17.3078 37.4306 17.4336 37.2832C17.4739 37.2629 17.5145 37.2228 17.5176 37.2197L17.7275 37.0088C18.1472 36.5872 18.6091 36.2079 19.0918 35.8496C19.3857 35.6388 19.6798 35.4489 20.1416 35.1748L20.75 34.8379C20.8759 34.7746 21.002 34.7105 21.2959 34.584C21.4847 34.4997 21.6526 34.4368 21.8623 34.3525C22.0512 34.2893 22.2618 34.2048 22.4717 34.1416C22.6605 34.0784 22.8703 34.0154 23.1221 33.9521C23.3109 33.8889 23.5207 33.8464 23.7725 33.7832C23.9404 33.741 24.1299 33.6988 24.2979 33.6777C24.5496 33.6356 24.8015 33.5933 25.0742 33.5723C25.221 33.5512 25.3679 33.5303 25.5566 33.5303C25.8294 33.4881 26.1233 33.4883 26.417 33.4883H70.3271L64.1143 39.749ZM48.6455 16.4756C54.3965 16.4757 60.0424 18.8371 64.1143 22.9268L70.3271 29.1875H26.3965C26.1028 29.1875 25.8298 29.1455 25.4941 29.1455C25.3473 29.1455 25.221 29.1036 25.0322 29.1035C24.7594 29.0824 24.5277 29.0402 24.2549 28.998C24.0871 28.977 23.8982 28.9558 23.6885 28.8926C23.4996 28.8504 23.2894 28.7878 23.0586 28.7246C22.8489 28.6825 22.6394 28.6184 22.4297 28.5342C22.2199 28.471 22.0306 28.387 21.7998 28.3027C21.6109 28.2395 21.4423 28.1765 21.1064 28.0078C20.9807 27.9446 20.8549 27.8811 20.6035 27.7549L19.9941 27.3965V27.417C19.6795 27.2274 19.365 27.0374 19.0713 26.8057C18.5885 26.4684 18.1478 26.0886 17.707 25.667L16.8252 26.5742L17.4971 25.4561C17.4553 25.4351 17.434 25.394 17.4131 25.3936C17.3082 25.2671 17.1816 25.1617 17.0557 24.9932C16.9297 24.8456 16.7827 24.6762 16.5938 24.4443C16.5727 24.4022 16.5311 24.3389 16.4893 24.2969C16.3214 24.1282 16.1952 23.9385 16.0273 23.6855C16.0064 23.6644 15.9854 23.6221 15.9854 23.6221C15.8595 23.4324 15.7333 23.2214 15.6074 23.0107C15.4816 22.8001 15.3553 22.5895 15.1875 22.2314C15.1036 22.0629 15.0409 21.9151 14.957 21.7256L14.7471 21.1982C14.7051 21.0296 14.6421 20.8815 14.5791 20.7129C14.5583 20.6918 14.5586 20.6499 14.5586 20.6289C14.4957 20.4393 14.4535 20.2706 14.3906 20.0811C14.3697 19.9757 14.3276 19.849 14.3066 19.7227C14.2857 19.7016 14.2228 19.428 14.2227 19.4062C14.1807 19.2587 14.1597 19.1319 14.1387 18.9844C14.0757 18.6049 14.0127 18.2042 13.9707 17.8037C13.9078 17.4243 13.9072 17.0235 13.9072 16.623V16.4756H48.6455ZM31.2246 0.496094C37.0805 0.496201 42.58 2.77283 46.7148 6.92578L50.0518 10.2773C50.0723 10.3186 50.1932 10.4412 50.1982 10.4463L51.5215 11.7949H12.166L11.4727 11.7529C11.2419 11.7319 11.032 11.7111 10.8223 11.6689L10.7803 11.585L10.5283 11.542C10.3815 11.5209 10.2137 11.4997 10.0039 11.4365C9.58413 11.3311 9.16441 11.2257 8.76562 11.0781C8.76157 11.0561 8.4502 10.9521 8.4502 10.9521C8.0725 10.8257 7.69461 10.6569 7.33789 10.4883C7.21208 10.4461 7.12828 10.4036 6.98145 10.3193C6.54067 10.1085 6.14148 9.85551 5.76367 9.60254L5.32324 9.28711C5.19731 9.1817 5.05026 9.07554 4.94531 8.99121C4.90359 8.94942 4.77984 8.86691 4.77734 8.86523L4.50488 8.6123C4.39994 8.5069 4.29437 8.40107 4.10547 8.23242C3.97951 8.10591 3.76953 7.89551 3.76953 7.89551L3.39258 7.49512C3.26664 7.36863 3.16108 7.22058 2.99316 7.00977L2.38477 6.16699C2.30081 6.06159 2.21677 5.93468 2.13281 5.78711L1.79688 5.19727C1.545 4.73347 1.31391 4.24814 1.125 3.74219C0.93616 3.2364 0.768494 2.73053 0.642578 2.18262C0.600607 2.014 0.558572 1.8239 0.516602 1.65527C0.453653 1.297 0.390612 0.896513 0.348633 0.496094H31.2246Z" fill="url(#paint0_linear_2941_2052)"></path>
  </g>
  <defs>
    <linearGradient id="paint0_linear_2941_2052" x1="2.45092" y1="-3.66099" x2="2.45092" y2="59.3378" gradientUnits="userSpaceOnUse">
      <stop stop-color="#FF6150"></stop>
      <stop offset="1" stop-color="#6B12ED"></stop>
    </linearGradient>
    <clipPath id="clip0_2941_2052">
      <rect width="70" height="61.6" fill="white" transform="translate(0.348633 0.539062)"></rect>
    </clipPath>
  </defs>
</svg>
