<?xml version="1.0" encoding="UTF-8"?>
<svg xmlns="http://www.w3.org/2000/svg" width="71" height="71" viewBox="0 0 71 71" fill="none">
  <path d="M26.3662 50.666H45.1348C46.3947 50.6662 47.416 51.6883 47.416 52.9482V68.2207C47.4159 69.4806 46.3946 70.5018 45.1348 70.502H26.3662C25.1062 70.502 24.0841 69.4807 24.084 68.2207V52.9443C24.0841 51.6843 25.1062 50.6631 26.3662 50.6631V50.666ZM18.3398 23.8379C19.5999 23.8379 20.6221 24.86 20.6221 26.1201V44.8887C20.6219 46.1486 19.5998 47.1699 18.3398 47.1699H3.03027C1.77031 47.1699 0.748233 46.1486 0.748047 44.8887V26.1201C0.748047 24.86 1.7702 23.8379 3.03027 23.8379H18.3398ZM45.1348 0.501953C46.3947 0.502141 47.416 1.52422 47.416 2.78418H47.4199V23.834H68.4707C69.7306 23.8342 70.752 24.8562 70.752 26.1162V44.8848C70.7518 46.1446 69.7306 47.1658 68.4707 47.166H26.3662C25.1062 47.166 24.0841 46.1447 24.084 44.8848V2.78418C24.084 1.52411 25.1061 0.501953 26.3662 0.501953H45.1348Z" fill="url(#paint0_linear_2941_1826)"></path>
  <defs>
    <linearGradient id="paint0_linear_2941_1826" x1="35.7501" y1="0.501953" x2="35.7501" y2="70.502" gradientUnits="userSpaceOnUse">
      <stop stop-color="#FF6150"></stop>
      <stop offset="1" stop-color="#6B12ED"></stop>
    </linearGradient>
  </defs>
</svg>
