<?xml version="1.0" encoding="UTF-8"?>
<svg xmlns="http://www.w3.org/2000/svg" width="41" height="41" viewBox="0 0 41 41" fill="none">
  <path d="M37.75 10.0469C39.25 10.0469 40.25 11.0469 40.25 12.5469V37.5469C40.25 39.0469 39.25 40.0469 37.75 40.0469H2.75C1.25 40.0469 0.25 39.0469 0.25 37.5469V12.5469C0.25 11.0469 1.25 10.0469 2.75 10.0469H37.75ZM12.5 15.0469C11.5 18.5469 8.75 21.2969 5.25 22.2969V27.7969C8.75 28.7969 11.5 31.5469 12.5 35.0469H28C29 31.5469 31.75 28.7969 35.5 28.0469V22.2969C32 21.2969 29.25 18.5469 28.25 15.0469H12.5ZM20.25 20.0469C23.0114 20.0469 25.25 22.2855 25.25 25.0469C25.25 27.8083 23.0114 30.0469 20.25 30.0469C17.4886 30.0469 15.25 27.8083 15.25 25.0469C15.25 22.2855 17.4886 20.0469 20.25 20.0469ZM35.25 0.046875V5.04688H5.25V0.046875H35.25Z" fill="url(#paint0_linear_2941_1852)"></path>
  <defs>
    <linearGradient id="paint0_linear_2941_1852" x1="20.25" y1="0.046875" x2="20.25" y2="40.0469" gradientUnits="userSpaceOnUse">
      <stop stop-color="#FF6150"></stop>
      <stop offset="1" stop-color="#6B12ED"></stop>
    </linearGradient>
  </defs>
</svg>
