<?xml version="1.0" encoding="UTF-8"?>
<svg xmlns="http://www.w3.org/2000/svg" width="33" height="41" viewBox="0 0 33 41" fill="none">
  <path d="M30.5 33.7773C31.1629 33.7773 31.7988 34.0402 32.2676 34.5088C32.7364 34.9776 33 35.6143 33 36.2773V38.7773C32.9999 39.1087 32.8681 39.4268 32.6338 39.6611C32.3994 39.8954 32.0814 40.0273 31.75 40.0273H1.75C1.41856 40.0273 1.10061 39.8955 0.866211 39.6611C0.631866 39.4268 0.500085 39.1087 0.5 38.7773V36.2773C0.5 35.6143 0.763581 34.9776 1.23242 34.5088C1.70122 34.0401 2.33712 33.7774 3 33.7773H30.5ZM10.5 0.0273438C14.1214 0.0229948 17.6668 1.06796 20.7061 3.03711C23.7453 5.00626 26.1481 7.81512 27.624 11.1221C29.0999 14.429 29.5852 18.0928 29.0215 21.6699C28.4929 25.0236 27.0635 28.1662 24.8916 30.7646L6.75 31.2773C6.75 21.2774 17.9997 20.0271 13 11.2773L6.45117 13.4619C6.18138 13.5519 5.88884 13.5478 5.62207 13.4492C5.3553 13.3506 5.12978 13.1638 4.9834 12.9199L4.08496 11.4199C3.9505 11.1961 3.89006 10.9351 3.91113 10.6748C3.93224 10.4148 4.03372 10.1679 4.20215 9.96875L10.5 2.52734V0.0273438Z" fill="url(#paint0_linear_2941_1847)"></path>
  <defs>
    <linearGradient id="paint0_linear_2941_1847" x1="16.75" y1="0.0273437" x2="16.75" y2="40.0273" gradientUnits="userSpaceOnUse">
      <stop stop-color="#FF6150"></stop>
      <stop offset="1" stop-color="#6B12ED"></stop>
    </linearGradient>
  </defs>
</svg>
