<?xml version="1.0" encoding="UTF-8"?>
<svg xmlns="http://www.w3.org/2000/svg" width="72" height="71" viewBox="0 0 72 71" fill="none">
  <path d="M66.668 17.125C69.1339 17.125 71.1426 19.1252 71.1426 21.584V65.8789C71.1424 68.3347 69.1367 70.335 66.668 70.335H22.1895L22.1865 70.3369C19.7208 70.3368 17.7131 68.3375 17.7129 65.8818V59.8271H49.8096C55.7513 59.8271 60.5888 55.0093 60.5889 49.0918V17.125H66.668ZM49.8096 0.337891C52.2755 0.337891 54.2842 2.33802 54.2842 4.79395V10.8457H22.1865C16.2449 10.8458 11.4072 15.6636 11.4072 21.584V53.5479H5.33105C2.86529 53.5477 0.857508 51.5476 0.857422 49.0918V4.79395C0.857422 2.33811 2.86524 0.338049 5.33105 0.337891H49.8096ZM54.2812 17.125V49.0918C54.2812 51.5475 52.2762 53.5476 49.8076 53.5479H17.7129V21.584C17.7129 19.1253 19.7178 17.1251 22.1865 17.125H54.2812ZM45.2129 28.8145C44.0772 27.6805 42.2373 27.6834 41.1016 28.8145L33.4238 36.4648L30.2422 33.2959C29.1065 32.1652 27.2674 32.1651 26.1318 33.2959L26.1289 33.3018C24.9932 34.4329 24.9932 36.2654 26.1289 37.3965L31.3672 42.6123C31.9107 43.1536 32.6543 43.459 33.4238 43.459C34.1932 43.459 34.9341 43.1543 35.4775 42.6104L45.2129 32.9111C46.3484 31.7772 46.3485 29.9455 45.2129 28.8145Z" fill="url(#paint0_linear_2941_1871)"></path>
  <defs>
    <linearGradient id="paint0_linear_2941_1871" x1="36" y1="0.337891" x2="36" y2="70.3369" gradientUnits="userSpaceOnUse">
      <stop stop-color="#FF6150"></stop>
      <stop offset="1" stop-color="#6B12ED"></stop>
    </linearGradient>
  </defs>
</svg>
