<?xml version="1.0" encoding="UTF-8"?>
<svg xmlns="http://www.w3.org/2000/svg" width="84" height="71" viewBox="0 0 84 71" fill="none">
  <path d="M13.123 29.0557C13.123 44.9325 25.9927 57.8026 41.8662 57.8027C57.7399 57.8027 70.6104 44.9327 70.6104 29.0557H83.1191C83.1191 51.8054 64.6126 70.3125 41.8662 70.3125C19.12 70.3123 0.613281 51.8053 0.613281 29.0557H13.123ZM58.1006 29.0557C58.1006 38.0096 50.8168 45.2939 41.8662 45.2939C32.9157 45.2938 25.6328 38.0095 25.6328 29.0557H58.1006ZM41.8662 0.3125C57.7397 0.3125 70.6101 13.1822 70.6104 29.0557H58.1006C58.1003 20.1036 50.8167 12.8223 41.8662 12.8223C32.9159 12.8224 25.6331 20.1054 25.6328 29.0557H13.123C13.1233 13.1823 25.9929 0.312681 41.8662 0.3125Z" fill="url(#paint0_linear_2941_2058)"></path>
  <defs>
    <linearGradient id="paint0_linear_2941_2058" x1="41.8662" y1="0.3125" x2="41.8662" y2="70.3125" gradientUnits="userSpaceOnUse">
      <stop stop-color="#FF6150"></stop>
      <stop offset="1" stop-color="#6B12ED"></stop>
    </linearGradient>
  </defs>
</svg>
