<?xml version="1.0" encoding="UTF-8"?>
<svg xmlns="http://www.w3.org/2000/svg" width="37" height="41" viewBox="0 0 37 41" fill="none">
  <path d="M12.083 0.667969C14.1408 0.6681 16.0611 1.77663 17.0928 3.55859C17.0984 3.56969 17.1254 3.5974 17.1309 3.6084C17.1529 3.6415 17.1755 3.6749 17.2031 3.70801C17.2251 3.73545 17.2525 3.7632 17.2744 3.78516C17.2964 3.80717 17.3241 3.83444 17.3516 3.85645C17.3847 3.88403 17.4181 3.90664 17.4512 3.92871C17.4573 3.93468 17.4847 3.95595 17.501 3.9668C17.5173 3.9723 17.5334 3.98322 17.5391 3.9834C17.5721 4.00539 17.6051 4.01674 17.6436 4.0332C17.6822 4.04975 17.7156 4.06123 17.7432 4.07227C17.7707 4.0833 17.8044 4.08823 17.832 4.09375C17.8925 4.10476 17.9256 4.11621 17.9531 4.11621H18.1631C18.2014 4.11073 18.2288 4.10509 18.2617 4.09961C18.3224 4.08857 18.3503 4.08267 18.3779 4.07715C18.411 4.07161 18.4386 4.05496 18.4717 4.04395C18.5212 4.02741 18.5548 4.01068 18.5879 3.99414C18.5988 3.98871 18.6097 3.98297 18.626 3.97754C18.6414 3.96724 18.6666 3.94798 18.6699 3.94531C18.7085 3.91773 18.7419 3.89512 18.7695 3.87305C18.8026 3.84549 18.825 3.82347 18.8525 3.7959C18.88 3.76842 18.9018 3.74623 18.9238 3.71875C18.9514 3.68565 18.974 3.65224 18.9961 3.61914C19.0021 3.60766 19.0346 3.56951 19.04 3.55859C20.0663 1.78215 21.9861 0.672879 24.0439 0.672852C27.2384 0.672852 29.832 3.27197 29.832 6.46094C29.832 6.95192 29.7603 7.45405 29.6279 7.95605C29.5893 8.11604 29.4565 8.23217 29.291 8.25977C28.6676 8.35908 28.0713 8.53556 27.5195 8.77832C26.9571 9.02673 26.703 9.68347 26.9512 10.2461C27.1995 10.8087 27.8563 11.0617 28.4189 10.8135C29.6161 10.2839 30.9458 10.2567 32.165 10.7256C33.3843 11.2001 34.3444 12.1162 34.874 13.3135C35.4036 14.5107 35.4374 15.8403 34.9629 17.0596C34.494 18.2842 33.5724 19.2438 32.3809 19.7734C31.9505 19.961 31.4809 20.0887 30.9844 20.1494C30.8688 20.1658 30.7532 20.1271 30.665 20.0557C30.5769 19.9785 30.5213 19.8735 30.5156 19.7578C30.4108 17.9702 29.4505 16.3308 27.9443 15.3818C27.6963 15.2221 27.3931 15.1723 27.1064 15.2383C26.8141 15.3045 26.5711 15.4759 26.4111 15.7295C26.2511 15.9778 26.2014 16.2759 26.2676 16.5684C26.3338 16.8608 26.505 17.1037 26.7588 17.2637C27.9226 18.003 28.5126 19.3985 28.2314 20.75C27.8563 22.5376 26.0907 23.6857 24.3086 23.3105C23.7129 23.1893 23.1172 23.5697 22.9902 24.1709C22.8634 24.7722 23.2493 25.3632 23.8506 25.4902C24.2258 25.573 24.6125 25.6113 24.9932 25.6113C27.051 25.6113 28.9326 24.4746 29.8926 22.6484C29.9698 22.5105 30.1135 22.4277 30.2734 22.4277H30.3994C31.3869 22.4277 32.3804 22.2126 33.2852 21.8154C33.4617 21.7327 33.6386 21.6446 33.8096 21.5508C33.953 21.4735 34.1244 21.4843 34.2568 21.5781C35.476 22.4554 36.2974 23.7467 36.5732 25.2197C36.8545 26.7369 36.5295 28.2764 35.6523 29.5508C34.7752 30.8306 33.4565 31.6854 31.9395 31.9668C31.4044 32.0606 30.8635 32.0883 30.3174 32.0332C30.1905 32.0167 30.0795 31.9505 30.0078 31.8457C29.4064 30.9354 28.5844 30.1683 27.6465 29.6221L27.5586 29.584C27.5476 29.5785 27.5253 29.5667 27.5088 29.5557C25.8923 28.7392 23.972 28.7506 22.3721 29.5947C22.1074 29.7327 21.9144 29.9698 21.8262 30.251C21.7379 30.5378 21.7655 30.8358 21.9033 31.1006C22.1792 31.6302 22.8746 31.8507 23.4043 31.5693C24.3697 31.0675 25.5174 31.0565 26.4883 31.542C26.4992 31.5474 26.5153 31.5583 26.5264 31.5586C28.0436 32.4579 28.9707 34.0745 28.9707 35.7959C28.9707 38.4938 26.7751 40.6894 24.0771 40.6895C21.3792 40.6895 19.1836 38.4938 19.1836 35.7959C19.1836 35.1835 18.6808 34.6816 18.0684 34.6816C17.4562 34.6819 16.9541 35.1837 16.9541 35.7959C16.9541 38.4938 14.7585 40.6895 12.0605 40.6895C9.36263 40.6894 7.16699 38.4938 7.16699 35.7959C7.16701 34.0525 8.1045 32.4244 9.61621 31.5527C10.1514 31.2438 10.3334 30.5599 10.0244 30.0303C9.71539 29.4953 9.03152 29.3132 8.50195 29.6221C7.51997 30.1903 6.67553 31.0066 6.05762 31.9775C5.99144 32.0768 5.88693 32.1494 5.76562 32.166C4.62356 32.337 3.44789 32.0991 2.46582 31.4922L2.42773 31.4873C1.31325 30.8032 0.534894 29.7266 0.231445 28.4521C-0.39176 25.8261 1.23622 23.184 3.8623 22.5605C4.70086 22.362 5.57805 22.3891 6.39453 22.6318C6.68135 22.7145 6.9849 22.6873 7.24414 22.5439C7.5089 22.4005 7.69685 22.1686 7.78516 21.8818C7.96168 21.2971 7.63022 20.6737 7.04004 20.4971C5.94211 20.166 4.76121 20.1107 3.61914 20.3369C3.48133 20.3644 3.34341 20.3257 3.24414 20.2266C2.13518 19.1286 1.52246 17.6662 1.52246 16.1104C1.52251 12.9159 4.12161 10.3232 7.31055 10.3232C7.60286 10.3233 7.90082 10.3508 8.2207 10.4004C8.34751 10.417 8.45238 10.4939 8.51855 10.5986C8.57924 10.7035 8.5959 10.8363 8.55176 10.9521C8.06632 12.3148 7.99946 13.7882 8.35254 15.2061C8.50164 15.7907 9.11484 16.1655 9.70508 16.0166C10.3007 15.8675 10.6645 15.2608 10.5156 14.665C10.1791 13.3355 10.3837 11.9564 11.0898 10.7812C11.796 9.60615 12.9156 8.77248 14.2451 8.44141C14.8409 8.29245 15.2055 7.68566 15.0566 7.08984C14.9077 6.49413 14.3008 6.12964 13.7051 6.27832C12.3479 6.62037 11.1172 7.33782 10.1572 8.3584C10.0469 8.46874 9.88105 8.5184 9.72656 8.46875C8.79436 8.17093 7.82346 8.05489 6.88574 8.10449C6.68168 8.12104 6.49931 7.98365 6.45508 7.78516C6.35025 7.33826 6.29492 6.89094 6.29492 6.45508C6.29502 3.26068 8.8941 0.667969 12.083 0.667969ZM17.9199 19.3936C17.7434 18.8032 17.1255 18.4667 16.5352 18.6377C15.9448 18.8142 15.6083 19.4321 15.7793 20.0225C16.2757 21.7107 15.5194 23.5645 13.9912 24.4307C13.8533 24.5132 13.6821 24.5023 13.5498 24.4141C12.8493 23.9397 12.0882 23.6088 11.2773 23.4268C11.2001 23.4102 11.1169 23.3984 11.0342 23.3984C10.8246 23.3985 10.6205 23.4594 10.4385 23.5752C10.1847 23.7352 10.0135 23.984 9.94727 24.2764L9.95898 24.2705C9.89829 24.5574 9.95294 24.8556 10.1074 25.1094C10.2619 25.363 10.5104 25.5334 10.8027 25.5996C13.1695 26.1237 14.6646 28.4799 14.1406 30.8467C14.0082 31.448 14.3832 32.0442 14.9844 32.1768C15.0946 32.1988 15.2052 32.2092 15.3154 32.1982C15.8009 32.1596 16.2038 31.812 16.3086 31.332C16.6671 29.6991 16.3974 28.0053 15.5479 26.5488C15.4375 26.3613 15.4866 26.124 15.6631 25.9971C17.732 24.4909 18.637 21.8376 17.9199 19.3936ZM22.7969 7.90625C22.4438 7.40435 21.7491 7.28865 21.2471 7.6416C20.745 7.99469 20.6294 8.68934 20.9824 9.19141C21.3962 9.77072 21.5608 10.4774 21.4395 11.1836C21.3181 11.8897 20.9318 12.5022 20.3525 12.916C19.1498 13.7654 17.4785 13.4839 16.6289 12.2812C16.4579 12.0386 16.1985 11.8788 15.9062 11.8291C15.8456 11.8126 15.7794 11.8125 15.7188 11.8125C15.4925 11.8125 15.2712 11.8842 15.0781 12.0166L15.0674 12.0273C14.5653 12.3804 14.4496 13.0761 14.8027 13.5781C15.7186 14.8691 17.2138 15.6416 18.8027 15.6416C19.8233 15.6416 20.7998 15.3325 21.6328 14.7422C22.7031 13.9809 23.4091 12.8554 23.6299 11.5645C23.8506 10.2734 23.5527 8.97108 22.7969 7.90625Z" fill="url(#paint0_linear_2941_2087)"></path>
  <defs>
    <linearGradient id="paint0_linear_2941_2087" x1="18.3853" y1="0.667969" x2="18.3853" y2="40.6895" gradientUnits="userSpaceOnUse">
      <stop stop-color="#FF6150"></stop>
      <stop offset="1" stop-color="#6B12ED"></stop>
    </linearGradient>
  </defs>
</svg>
