<?xml version="1.0" encoding="UTF-8"?>
<svg xmlns="http://www.w3.org/2000/svg" width="70" height="71" viewBox="0 0 70 71" fill="none">
  <path d="M17.4985 35.0391C27.1483 35.0391 34.9984 42.8893 34.9985 52.5391C34.9985 62.1889 27.1484 70.039 17.4985 70.0391C7.84864 70.0391 -0.00146484 62.189 -0.00146484 52.5391C-0.00131736 42.8893 7.84873 35.0391 17.4985 35.0391ZM52.5015 35.0391C62.1513 35.0391 70.0013 42.8893 70.0015 52.5391C70.0015 62.189 62.1514 70.0391 52.5015 70.0391C42.8517 70.0389 35.0015 62.1889 35.0015 52.5391C35.0016 42.8894 42.8518 35.0392 52.5015 35.0391ZM17.5015 45.7725C13.7695 45.7725 10.7322 48.8101 10.7319 52.542C10.7319 56.2741 13.7694 59.3124 17.5015 59.3125C21.2336 59.3125 24.2681 56.2742 24.2681 52.542C24.2678 48.81 21.2335 45.7725 17.5015 45.7725ZM52.4985 45.7725C48.7666 45.7725 45.7292 48.8101 45.729 52.542C45.729 56.2741 48.7664 59.3124 52.4985 59.3125C56.2307 59.3125 59.2681 56.2742 59.2681 52.542C59.2678 48.81 56.2306 45.7725 52.4985 45.7725ZM17.4985 0.0390625C27.1484 0.0390866 34.9985 7.88922 34.9985 17.5391C34.9985 27.1889 27.1484 35.039 17.4985 35.0391C7.84864 35.0391 -0.00146484 27.189 -0.00146484 17.5391C-0.00141651 7.8892 7.84867 0.0390625 17.4985 0.0390625ZM52.5015 0.0390625C62.1513 0.0390625 70.0014 7.8892 70.0015 17.5391C70.0015 27.189 62.1514 35.0391 52.5015 35.0391C42.8517 35.0389 35.0015 27.1889 35.0015 17.5391C35.0015 7.8893 42.8517 0.039222 52.5015 0.0390625ZM17.5015 10.7695C13.7694 10.7696 10.732 13.807 10.7319 17.5391C10.7319 21.2712 13.7694 24.3085 17.5015 24.3086C21.2336 24.3086 24.2681 21.2712 24.2681 17.5391C24.268 13.8069 21.2336 10.7695 17.5015 10.7695ZM52.4985 10.7695C48.7665 10.7696 45.7291 13.807 45.729 17.5391C45.729 21.2712 48.7664 24.3085 52.4985 24.3086C56.2307 24.3086 59.2681 21.2712 59.2681 17.5391C59.268 13.8069 56.2307 10.7695 52.4985 10.7695Z" fill="url(#paint0_linear_2941_1820)"></path>
  <defs>
    <linearGradient id="paint0_linear_2941_1820" x1="35" y1="0.0390625" x2="35" y2="70.0391" gradientUnits="userSpaceOnUse">
      <stop stop-color="#FF6150"></stop>
      <stop offset="1" stop-color="#6B12ED"></stop>
    </linearGradient>
  </defs>
</svg>
