<?xml version="1.0" encoding="UTF-8"?>
<svg xmlns="http://www.w3.org/2000/svg" width="86" height="62" viewBox="0 0 86 62" fill="none">
  <path d="M3.2746 10.8557C6.4793 7.65097 11.6754 7.65097 14.8801 10.8557L51.9387 47.9143C55.1434 51.119 55.1434 56.315 51.9387 59.5197C48.734 62.7244 43.5379 62.7244 40.3332 59.5197L3.2746 22.4611C0.0699132 19.2565 0.0699362 14.0604 3.2746 10.8557ZM29.5461 5.59884C32.7508 2.39414 37.9469 2.39414 41.1516 5.59884L67.7033 32.1506C70.9078 35.3553 70.908 40.5514 67.7033 43.7561C64.4987 46.9606 59.3025 46.9605 56.0978 43.7561L29.5461 17.2033C26.3416 13.9987 26.3415 8.8035 29.5461 5.59884ZM58.0295 2.55294C61.2342 -0.651761 66.4303 -0.651761 69.635 2.55294L83.467 16.385C86.6716 19.5896 86.6723 24.7857 83.468 27.9904C80.2633 31.1951 75.0672 31.1951 71.8625 27.9904L58.0295 14.1574C54.825 10.9528 54.825 5.7576 58.0295 2.55294Z" fill="#D9D9D9"></path>
  <path d="M3.2746 10.8557C6.4793 7.65097 11.6754 7.65097 14.8801 10.8557L51.9387 47.9143C55.1434 51.119 55.1434 56.315 51.9387 59.5197C48.734 62.7244 43.5379 62.7244 40.3332 59.5197L3.2746 22.4611C0.0699132 19.2565 0.0699362 14.0604 3.2746 10.8557ZM29.5461 5.59884C32.7508 2.39414 37.9469 2.39414 41.1516 5.59884L67.7033 32.1506C70.9078 35.3553 70.908 40.5514 67.7033 43.7561C64.4987 46.9606 59.3025 46.9605 56.0978 43.7561L29.5461 17.2033C26.3416 13.9987 26.3415 8.8035 29.5461 5.59884ZM58.0295 2.55294C61.2342 -0.651761 66.4303 -0.651761 69.635 2.55294L83.467 16.385C86.6716 19.5896 86.6723 24.7857 83.468 27.9904C80.2633 31.1951 75.0672 31.1951 71.8625 27.9904L58.0295 14.1574C54.825 10.9528 54.825 5.7576 58.0295 2.55294Z" fill="url(#paint0_linear_2486_345)"></path>
  <defs>
    <linearGradient id="paint0_linear_2486_345" x1="2.24382" y1="8.64941" x2="2.24382" y2="51.6494" gradientUnits="userSpaceOnUse">
      <stop stop-color="#FF6150"></stop>
      <stop offset="1" stop-color="#6B12ED"></stop>
    </linearGradient>
  </defs>
</svg>
