<?xml version="1.0" encoding="UTF-8"?>
<svg xmlns="http://www.w3.org/2000/svg" width="41" height="41" viewBox="0 0 41 41" fill="none">
  <path d="M6.76868 28.9482C8.15204 28.9482 9.47889 29.4975 10.4581 30.4746C11.4357 31.4539 11.9845 32.7813 11.9845 34.165C11.9844 35.5487 11.4357 36.8762 10.4581 37.8555C8.58314 39.7292 2.31815 40.2023 1.6095 40.251H1.55188C1.43262 40.2512 1.31371 40.227 1.20422 40.1797C1.09484 40.1324 0.996656 40.0625 0.915161 39.9756C0.833676 39.8886 0.770698 39.786 0.730591 39.6738C0.690526 39.5616 0.673831 39.4421 0.681763 39.3232C0.731326 38.6146 1.2037 32.3495 3.07922 30.4746C4.05846 29.4975 5.38532 28.9482 6.76868 28.9482ZM35.3234 21.6191C36.4528 26.9153 34.1532 32.5722 29.045 36.5859C28.8778 36.7174 28.6675 36.7832 28.4552 36.7705C28.243 36.7578 28.043 36.6679 27.8927 36.5176L23.7325 32.3584C28.2476 29.553 32.1824 25.9075 35.3234 21.6191ZM39.7657 0.251953C39.8882 0.244982 40.011 0.264543 40.1251 0.30957C40.2392 0.354611 40.3422 0.423948 40.4269 0.512695C40.5128 0.598546 40.5804 0.701135 40.6241 0.814453C40.6679 0.92783 40.6868 1.04953 40.6808 1.1709C39.3303 24.9241 18.5943 33.1564 18.3839 33.2373C18.2847 33.2755 18.1787 33.2943 18.0724 33.2939C17.8421 33.2938 17.621 33.2028 17.4581 33.04L7.8927 23.4746C7.77446 23.3564 7.69265 23.2064 7.65735 23.043C7.62207 22.8795 7.63454 22.7092 7.69348 22.5527C7.77348 22.3423 15.904 1.49821 39.7657 0.251953ZM24.6212 14.4287C23.9857 14.1655 23.2861 14.0972 22.6115 14.2314C21.9368 14.3657 21.3166 14.6972 20.8302 15.1836C20.344 15.6699 20.0132 16.2894 19.879 16.9639C19.7448 17.6385 19.8131 18.3381 20.0763 18.9736C20.3395 19.6091 20.7857 20.152 21.3575 20.5342C21.9295 20.9164 22.6022 21.1211 23.2902 21.1211C24.2126 21.1211 25.0969 20.7538 25.7491 20.1016C26.4014 19.4493 26.7677 18.565 26.7677 17.6426C26.7677 16.9547 26.5639 16.2819 26.1818 15.71C25.7996 15.1381 25.2567 14.6919 24.6212 14.4287ZM4.34583 11.8877C8.33355 6.81043 13.9493 4.51269 19.2179 5.5918C14.9479 8.72892 11.3255 12.6631 8.55188 17.1777L4.41516 13.04C4.26479 12.8896 4.17489 12.6889 4.16223 12.4766C4.14969 12.2644 4.21449 12.0548 4.34583 11.8877Z" fill="url(#paint0_linear_2941_2037)"></path>
  <defs>
    <linearGradient id="paint0_linear_2941_2037" x1="20.6808" y1="0.25" x2="20.6808" y2="40.2504" gradientUnits="userSpaceOnUse">
      <stop stop-color="#FF6150"></stop>
      <stop offset="1" stop-color="#6B12ED"></stop>
    </linearGradient>
  </defs>
</svg>
