<?xml version="1.0" encoding="UTF-8"?>
<svg xmlns="http://www.w3.org/2000/svg" width="41" height="41" viewBox="0 0 41 41" fill="none">
  <path d="M20.4785 0.679688C31.5241 0.679688 40.4785 9.63406 40.4785 20.6797C40.4785 31.7253 31.5241 40.6797 20.4785 40.6797C9.43301 40.6795 0.478516 31.7252 0.478516 20.6797C0.478516 9.63415 9.43301 0.679831 20.4785 0.679688ZM22.917 16.3135C22.1958 15.9099 21.3637 15.6797 20.4785 15.6797C17.7172 15.6798 15.4785 17.9183 15.4785 20.6797C15.4785 23.441 17.7172 25.6795 20.4785 25.6797C23.2399 25.6797 25.4785 23.4411 25.4785 20.6797C25.4785 19.7944 25.2483 18.9625 24.8447 18.2412L32.8613 10.2256L30.9326 8.29688L22.917 16.3135Z" fill="url(#paint0_linear_2941_2044)"></path>
  <defs>
    <linearGradient id="paint0_linear_2941_2044" x1="20.4785" y1="0.679687" x2="20.4785" y2="40.6797" gradientUnits="userSpaceOnUse">
      <stop stop-color="#FF6150"></stop>
      <stop offset="1" stop-color="#6B12ED"></stop>
    </linearGradient>
  </defs>
</svg>
