<?xml version="1.0" encoding="UTF-8"?>
<svg xmlns="http://www.w3.org/2000/svg" width="68" height="71" viewBox="0 0 68 71" fill="none">
  <path d="M39.9941 0.3125C41.2918 2.4374 43.4096 7.13581 42.7031 9.39844C42.7744 9.43881 52.3691 14.9463 52.3691 14.9463C53.9865 13.2064 59.1382 12.6809 61.6377 12.7354L67.5332 22.8877C66.3303 25.0678 63.2964 29.241 60.9717 29.7637V40.8604C63.2964 41.383 66.3303 45.5562 67.5322 47.7363L61.6367 57.8887C59.1372 57.9431 53.9856 57.4176 52.3682 55.6777C52.3672 55.6777 42.7718 61.1856 42.7021 61.2256C43.4086 63.4882 41.2909 68.1876 39.9932 70.3125H28.2031C26.9054 68.1867 24.7877 63.4883 25.4941 61.2256C25.4932 61.2256 15.8965 55.717 15.8281 55.6777C14.211 57.4177 9.05926 57.943 6.55957 57.8887L0.664062 47.7363C1.86694 45.5562 4.89994 41.3832 7.22461 40.8604V37.8174H17.1846C17.3906 39.1823 17.7672 40.545 18.3281 41.877C21.9805 50.55 32.0036 54.6234 40.7041 51.002C49.4048 47.3801 53.5195 37.4214 49.8672 28.748C46.2148 20.0748 36.1918 16.0024 27.4912 19.624C21.7752 22.0036 18.038 27.1178 17.1826 32.8057H7.22461V29.7637C4.89994 29.2399 1.86596 25.0678 0.664062 22.8877L6.56055 12.7354C9.06024 12.681 14.2119 13.2063 15.8291 14.9463C15.896 14.9085 25.4752 9.40988 25.4951 9.39844C24.7886 7.13671 26.9064 2.4373 28.2041 0.3125H39.9941ZM29.4355 24.2432C35.5982 21.6778 42.6705 24.5694 45.2412 30.6738C47.8116 36.7783 44.9214 43.8165 38.7588 46.3818C32.5961 48.9469 25.5256 46.0546 22.9551 39.9502C20.3849 33.8461 23.2735 26.8088 29.4355 24.2432Z" fill="url(#paint0_linear_2941_2067)"></path>
  <defs>
    <linearGradient id="paint0_linear_2941_2067" x1="34.0986" y1="0.3125" x2="34.0986" y2="70.3125" gradientUnits="userSpaceOnUse">
      <stop stop-color="#FF6150"></stop>
      <stop offset="1" stop-color="#6B12ED"></stop>
    </linearGradient>
  </defs>
</svg>
