<?xml version="1.0" encoding="UTF-8"?>
<svg xmlns="http://www.w3.org/2000/svg" width="81" height="81" viewBox="0 0 81 81" fill="none">
  <g clip-path="url(#clip0_2941_1656)">
    <path d="M67.4665 27.2975H52.5074C45.139 27.2975 39.1741 21.3326 39.1741 13.9642C39.1741 6.59577 45.1507 0.630859 52.5074 0.630859H14.1331C6.76472 0.630859 0.799805 6.59577 0.799805 13.9642C0.799805 21.3326 6.76472 27.2975 14.1331 27.2975H29.0922C36.4606 27.2975 42.4255 33.2624 42.4255 40.6309C42.4255 47.9993 36.4606 53.9642 29.0922 53.9642H14.1331C6.76472 53.9642 0.799805 59.9291 0.799805 67.2975C0.799805 74.6659 6.76472 80.6309 14.1331 80.6309H52.5074C45.1507 80.6309 39.1741 74.6543 39.1741 67.2975C39.1741 59.9291 45.139 53.9642 52.5074 53.9642H67.4665C74.8349 53.9642 80.7998 47.9993 80.7998 40.6309C80.7998 33.2624 74.8349 27.2975 67.4665 27.2975Z" fill="url(#paint0_linear_2941_1656)"></path>
  </g>
  <defs>
    <linearGradient id="paint0_linear_2941_1656" x1="40.7998" y1="0.630859" x2="40.7998" y2="80.6309" gradientUnits="userSpaceOnUse">
      <stop stop-color="#FF6150"></stop>
      <stop offset="1" stop-color="#6B12ED"></stop>
    </linearGradient>
    <clipPath id="clip0_2941_1656">
      <rect width="80" height="80" fill="white" transform="translate(0.799805 0.630859)"></rect>
    </clipPath>
  </defs>
</svg>
