<?xml version="1.0" encoding="UTF-8"?>
<svg xmlns="http://www.w3.org/2000/svg" width="81" height="81" viewBox="0 0 81 81" fill="none">
  <g clip-path="url(#clip0_2941_1671)">
    <path fill-rule="evenodd" clip-rule="evenodd" d="M64.8896 47.2591C64.4738 47.2198 64.0468 47.2086 63.6254 47.2086C63.204 47.2086 62.777 47.2198 62.3612 47.2591H54.332C50.3876 47.2591 47.1849 44.0621 47.1849 40.1121V40.0671C47.1849 36.1171 50.3876 32.9201 54.332 32.9201H62.4455C62.8388 32.9538 63.2265 32.965 63.6254 32.965C64.0243 32.965 64.412 32.9538 64.8054 32.9201C73.3403 32.3188 80.0659 25.2111 80.0659 16.5301C80.0659 7.84912 72.6997 0.0839844 63.6198 0.0839844C54.5399 0.0839844 47.8254 6.80965 47.2242 15.3446C47.1905 15.7379 47.1793 16.1256 47.1793 16.5245C47.1793 16.9234 47.1961 17.3111 47.2242 17.7044V25.8123C47.2242 29.7623 44.0272 32.9594 40.0828 32.9594H40.0322C36.0878 32.9594 32.8851 29.7623 32.8851 25.8123V17.7044C32.9189 17.3111 32.9301 16.9234 32.9301 16.5245C32.9301 16.1256 32.9132 15.7322 32.8851 15.3446C32.2896 6.80965 25.1762 0.0839844 16.4952 0.0839844C7.8142 0.0839844 0.0546875 7.44457 0.0546875 16.5245C0.0546875 25.6044 6.78035 32.3188 15.3153 32.9144C15.7086 32.9482 16.0963 32.9594 16.4952 32.9594C16.8941 32.9594 17.2818 32.9482 17.6751 32.9144H25.7886C29.733 32.9144 32.9357 36.1115 32.9357 40.0615V40.1065C32.9357 44.0565 29.733 47.2535 25.7886 47.2535H17.7594C17.3436 47.2142 16.9166 47.203 16.4952 47.203C16.0738 47.203 15.6468 47.2142 15.231 47.2535C6.74664 47.8997 0.0546875 54.9906 0.0546875 63.6435C0.0546875 72.7234 7.41527 80.084 16.4952 80.084C25.5751 80.084 32.4244 73.2235 32.9076 64.5762C32.9245 64.2672 32.9357 63.9581 32.9357 63.6435C32.9357 63.3288 32.9301 63.0198 32.9076 62.7108V54.3556C32.9076 50.4057 36.1047 47.2086 40.0547 47.2086H40.0996C44.0496 47.2086 47.2411 50.4113 47.2411 54.3556V62.2107C47.1961 62.6883 47.1737 63.1603 47.1737 63.6435C47.1737 64.1267 47.1961 64.6043 47.2411 65.0763C47.9659 73.4875 55.0175 80.084 63.6142 80.084C72.6941 80.084 80.0547 72.7234 80.0547 63.6435C80.0547 54.5635 73.3684 47.8997 64.8784 47.2535L64.8896 47.2591Z" fill="url(#paint0_linear_2941_1671)"></path>
  </g>
  <defs>
    <linearGradient id="paint0_linear_2941_1671" x1="40.0603" y1="0.0839844" x2="40.0603" y2="80.084" gradientUnits="userSpaceOnUse">
      <stop stop-color="#FF6150"></stop>
      <stop offset="1" stop-color="#6B12ED"></stop>
    </linearGradient>
    <clipPath id="clip0_2941_1671">
      <rect width="80.0056" height="80" fill="white" transform="translate(0.0546875 0.0839844)"></rect>
    </clipPath>
  </defs>
</svg>
