<?xml version="1.0" encoding="UTF-8"?>
<svg xmlns="http://www.w3.org/2000/svg" width="81" height="81" viewBox="0 0 81 81" fill="none">
  <path d="M57.9375 25.5977C62.9935 20.5416 71.1696 20.5416 76.2256 25.5977C81.2814 30.6537 81.2815 38.8288 76.2256 43.8848L40.0264 80.084L3.79199 43.8848C1.26403 41.3568 0.00882006 38.0401 0.00878906 34.7412C0.00878906 31.4423 1.26408 28.1257 3.79199 25.5977C8.84802 20.5416 17.024 20.5416 22.0801 25.5977L40.0088 43.5264L57.9375 25.5977ZM40.0088 0.0839844C47.5343 0.0839854 53.6347 6.18452 53.6348 13.71C53.6348 21.2355 47.5343 27.3359 40.0088 27.3359C32.4833 27.3359 26.3828 21.2355 26.3828 13.71C26.3829 6.18452 32.4833 0.0839844 40.0088 0.0839844Z" fill="url(#paint0_linear_2941_1673)"></path>
  <defs>
    <linearGradient id="paint0_linear_2941_1673" x1="40.0132" y1="0.0839844" x2="40.0132" y2="80.084" gradientUnits="userSpaceOnUse">
      <stop stop-color="#FF6150"></stop>
      <stop offset="1" stop-color="#6B12ED"></stop>
    </linearGradient>
  </defs>
</svg>
