<?xml version="1.0" encoding="UTF-8"?>
<svg xmlns="http://www.w3.org/2000/svg" width="66" height="68" viewBox="0 0 66 68" fill="none">
  <path d="M43.8418 66.0312C40.4321 67.1874 36.7869 67.8535 32.9854 67.8535C29.4974 67.8535 26.1363 67.3245 22.9717 66.335C19.5328 65.2668 17.5829 61.6315 18.4941 58.1533L18.5039 58.1436L23.9619 37.3125L43.8418 66.0312ZM65.9072 40.8105C64.5159 47.9435 60.8422 54.2538 55.6885 58.9863H55.6787C53.0332 61.4163 48.9177 61.2984 46.3604 58.7705L31.0459 43.6523L65.9072 40.8105ZM10.9404 59.5742C5.67882 54.9789 1.8666 48.7763 0.279297 41.7314C-0.514045 38.1945 1.63213 34.6672 5.12012 33.707L25.8916 28.0244L10.9404 59.5742ZM55.0312 9.13379C60.3026 13.7291 64.1051 19.9308 65.6924 26.9756C66.486 30.5127 64.3397 34.0408 60.8516 35.001L40.0801 40.6836L55.0312 9.13379ZM32.9854 0.853516C36.4735 0.853516 39.8352 1.38343 43 2.37305C46.4387 3.44121 48.3884 7.07569 47.4775 10.5537L47.4678 10.5635L42.0098 31.3945L22.1299 2.67676C25.5394 1.52068 29.1839 0.853569 32.9854 0.853516ZM10.293 9.72168C12.9384 7.29179 17.054 7.40876 19.6113 9.93652L34.9258 25.0557L0.0644531 27.8965C1.45583 20.7638 5.12966 14.454 10.2832 9.72168H10.293Z" fill="url(#paint0_linear_2941_1513)"></path>
  <defs>
    <linearGradient id="paint0_linear_2941_1513" x1="32.9858" y1="0.853516" x2="32.9858" y2="67.8535" gradientUnits="userSpaceOnUse">
      <stop stop-color="#FF6150"></stop>
      <stop offset="1" stop-color="#6B12ED"></stop>
    </linearGradient>
  </defs>
</svg>
