<?xml version="1.0" encoding="UTF-8"?>
<svg xmlns="http://www.w3.org/2000/svg" width="68" height="68" viewBox="0 0 68 68" fill="none">
  <path d="M28.7505 36.3027C30.1808 36.3028 31.3391 37.4613 31.3394 38.8916V45.6006C31.3394 46.8862 30.2987 47.9276 29.0132 47.9277H28.8228C28.1346 47.9277 27.501 47.6018 27.0483 47.0947C25.989 45.9087 24.4585 45.166 22.7563 45.166C19.1982 45.1661 16.3826 48.4078 17.1069 52.0928C17.5596 54.3925 19.4427 56.221 21.7515 56.6104C23.8429 56.9725 25.7713 56.1852 27.0298 54.791L27.0396 54.7998C27.5012 54.284 28.1346 53.9493 28.8315 53.9492H29.0132C30.2986 53.9494 31.3391 54.99 31.3394 56.2754V64.4424C31.3394 66.0631 29.8911 67.2764 28.2886 67.041C14.0103 64.9224 2.71972 53.6318 0.601074 39.3535C0.3568 37.7511 1.57916 36.3028 3.19971 36.3027H28.7505ZM64.9302 36.2842C66.5418 36.2842 67.7642 37.7334 67.5288 39.3359C65.4101 53.614 54.1195 64.9048 39.8413 67.0234C38.239 67.2677 36.7907 66.0452 36.7905 64.4248V38.8828C36.7906 37.4525 37.9491 36.2942 39.3794 36.2939H46.0884C47.374 36.2939 48.4154 37.3346 48.4155 38.6201V38.8105C48.4155 39.4985 48.0991 40.1323 47.5923 40.585C46.4062 41.6443 45.6636 43.1748 45.6636 44.877C45.6637 48.435 48.9045 51.2505 52.5894 50.5264C54.8891 50.0737 56.7186 48.1906 57.1079 45.8818C57.461 43.7904 56.6819 41.862 55.2876 40.6035V40.585C54.7716 40.1232 54.437 39.4891 54.437 38.792V38.6113C54.437 37.3258 55.4777 36.2844 56.7632 36.2842H64.9302ZM28.27 0.104492C29.8726 -0.139967 31.3218 1.08245 31.3218 2.70312V28.2539C31.3216 29.6843 30.1623 30.8428 28.7319 30.8428H22.0229C20.7374 30.8427 19.6958 29.8012 19.6958 28.5156V28.3262C19.6958 27.6383 20.022 27.0044 20.5288 26.5518C21.7149 25.4924 22.4575 23.9619 22.4575 22.2598C22.4575 18.7015 19.2255 15.886 15.5405 16.6104C13.2408 17.0631 11.4123 18.9461 11.0229 21.2549C10.6608 23.3463 11.448 25.2747 12.8423 26.5332H12.8335C13.3495 26.995 13.6841 27.6291 13.6841 28.3262V28.5068C13.6841 29.7924 12.6434 30.8338 11.3579 30.834H3.19092C1.5793 30.834 0.35688 29.3848 0.592285 27.7822C2.71109 13.5043 14.0012 2.22328 28.27 0.104492ZM36.7993 2.69434C36.7993 1.08271 38.2485 -0.139702 39.8511 0.0957031C54.1289 2.22358 65.4193 13.5044 67.52 27.7822C67.7645 29.3848 66.542 30.8339 64.9214 30.834H39.3794C37.949 30.8338 36.7905 29.6746 36.7905 28.2441V21.5352C36.7907 20.2496 37.8321 19.208 39.1177 19.208H39.3071C39.995 19.208 40.6289 19.5342 41.0815 20.041C42.1409 21.2271 43.6714 21.9697 45.3735 21.9697C48.9317 21.9697 51.7471 18.7288 51.0229 15.0439C50.5702 12.7442 48.6872 10.9147 46.3784 10.5254C44.287 10.1724 42.3586 10.9514 41.1001 12.3457V12.3369C40.6384 12.8529 40.0042 13.1875 39.3071 13.1875H39.1265C37.8408 13.1875 36.7993 12.146 36.7993 10.8604V2.69434Z" fill="url(#paint0_linear_2941_1665)"></path>
  <defs>
    <linearGradient id="paint0_linear_2941_1665" x1="34.0603" y1="0.0664062" x2="34.0603" y2="67.0701" gradientUnits="userSpaceOnUse">
      <stop stop-color="#FF6150"></stop>
      <stop offset="1" stop-color="#6B12ED"></stop>
    </linearGradient>
  </defs>
</svg>
