<?xml version="1.0" encoding="UTF-8"?>
<svg xmlns="http://www.w3.org/2000/svg" width="80" height="68" viewBox="0 0 80 68" fill="none">
  <path d="M29.9961 5.09668C35.6537 -0.560884 44.8512 -0.560884 50.5088 5.09668L79.7588 34.3467L50.5088 63.5967C47.771 66.3345 44.1243 67.8427 40.2529 67.8428C36.3814 67.8428 32.734 66.3346 29.9961 63.5967C29.1016 62.7021 28.339 61.7103 27.7168 60.6455L24.7559 63.6074C22.018 66.3453 18.3706 67.8535 14.499 67.8535C10.6276 67.8534 6.98097 66.3452 4.24316 63.6074C-1.41429 57.9498 -1.41436 48.7523 4.24316 43.0947L12.9912 34.3467L4.24316 25.5986C-1.41439 19.9518 -1.41436 10.7542 4.24316 5.09668C9.90073 -0.560884 19.0983 -0.560884 24.7559 5.09668L27.7129 8.05469C28.3288 6.99701 29.0898 6.00128 29.9961 5.09668ZM42.873 12.7324C41.4292 11.2886 39.0756 11.2886 37.6318 12.7324V12.7217C36.1884 14.1654 36.1885 16.5181 37.6318 17.9619L54.0059 34.3467L54 34.3516L54.0059 34.3574L37.4775 50.8848C36.1905 52.3367 36.2418 54.5604 37.6318 55.9609C39.0329 57.362 41.472 57.362 42.873 55.9609L64.4873 34.3467L42.873 12.7324Z" fill="url(#paint0_linear_2941_1600)"></path>
  <defs>
    <linearGradient id="paint0_linear_2941_1600" x1="39.8794" y1="0.853516" x2="39.8794" y2="67.8535" gradientUnits="userSpaceOnUse">
      <stop stop-color="#FF6150"></stop>
      <stop offset="1" stop-color="#6B12ED"></stop>
    </linearGradient>
  </defs>
</svg>
