<?xml version="1.0" encoding="UTF-8"?>
<svg xmlns="http://www.w3.org/2000/svg" width="63" height="63" viewBox="0 0 63 63" fill="none">
  <path d="M31.5518 47.5332C31.0423 55.6308 24.6632 62.0487 16.1025 62.0488C7.54169 62.0488 0.601582 55.1087 0.601562 46.5479C0.601562 38.3191 7.01874 31.6084 15.1162 31.0986L31.5518 47.5332ZM48.084 31.0986C56.1817 31.6081 62.5996 37.987 62.5996 46.5479C62.5996 55.1087 55.325 62.0488 47.0986 62.0488C38.8723 62.0488 32.1589 55.6335 31.6494 47.5332L48.084 31.0986ZM16.1025 0.0488281C24.3286 0.0490011 31.0421 6.4661 31.5518 14.5635L15.1162 30.999C7.01884 30.4893 0.601735 23.7784 0.601562 15.5498C0.601562 6.98894 7.87618 0.0488281 16.1025 0.0488281ZM47.1006 0.0488281C55.6614 0.0488475 62.6016 6.98895 62.6016 15.5498C62.6014 23.776 56.1861 30.4895 48.0859 30.999L31.6514 14.5635C32.1611 6.46601 38.8718 0.0488281 47.1006 0.0488281Z" fill="url(#paint0_linear_2550_1661)"></path>
  <defs>
    <linearGradient id="paint0_linear_2550_1661" x1="31.6016" y1="0.0488281" x2="31.6016" y2="62.0488" gradientUnits="userSpaceOnUse">
      <stop stop-color="#FF6150"></stop>
      <stop offset="1" stop-color="#6B12ED"></stop>
    </linearGradient>
  </defs>
</svg>
