<?xml version="1.0" encoding="UTF-8"?>
<svg xmlns="http://www.w3.org/2000/svg" width="68" height="68" viewBox="0 0 68 68" fill="none">
  <path d="M24.8223 19.4082C25.1407 19.4294 25.4599 19.4505 25.7783 19.4717H25.9902L26.4355 19.5146C26.5417 19.5359 26.6482 19.5357 26.9453 19.5781C28.4949 19.7692 30.0024 20.1082 31.4883 20.5752C31.6793 20.6389 31.8497 20.7032 32.1045 20.7881C32.3166 20.8729 32.5287 20.9369 32.7832 21.043L33.1445 21.2129C32.359 21.2766 31.5943 21.4039 30.8301 21.6162C29.4503 21.9771 28.1342 22.5714 26.7969 23.4629C23.1667 25.9043 21.001 29.9803 21.001 34.3535C21.001 41.6138 26.9028 47.5154 34.1631 47.5156C39.1519 47.5156 43.6317 44.7561 45.9033 40.3193C46.0095 40.107 46.1155 39.8732 46.2217 39.6396C46.2217 39.5972 46.2646 39.5756 46.2646 39.5332C46.8377 38.1747 47.1771 36.7737 47.2832 35.3516C47.3034 35.3516 47.3046 35.39 47.3047 35.3936C47.517 35.9243 47.7083 36.4981 47.8994 37.0713C47.9843 37.3895 48.0899 37.6867 48.1748 38.0049C48.2597 38.3445 48.3448 38.6843 48.4297 39.0664C48.5146 39.3847 48.5779 39.7032 48.6416 40.0215C48.7902 40.8282 48.918 41.6779 49.0029 42.5059V42.8242C49.0029 43.0152 49.0449 43.1854 49.0449 43.334V44.7139C49.0449 45.9663 48.9608 47.1975 48.791 48.3438L48.5146 49.915C48.4298 50.2758 48.3661 50.6365 48.2812 50.9336L48.0898 51.6133C48.0262 51.783 47.9836 51.9533 47.9199 52.123C47.8988 52.1655 47.8779 52.2292 47.8779 52.2715C47.8143 52.4837 47.7714 52.6745 47.6865 52.8867C47.5591 53.2901 47.4103 53.6728 47.2617 54.0762L47.0078 54.7129C46.9866 54.7553 46.9435 54.7974 46.9434 54.8398C46.8797 54.9884 46.8163 55.1583 46.7314 55.3281L46.583 55.625C46.4769 55.8373 46.392 56.0504 46.2646 56.2627V56.3047C46.2228 56.3675 46.1599 56.4717 46.1582 56.4746L45.9668 56.8145L45.8613 57.0059C45.3731 57.9186 44.8417 58.7459 44.2686 59.5312C44.1837 59.6586 44.0988 59.7651 43.9502 59.9561C42.8463 61.4209 41.5728 62.7589 40.1504 63.9902C39.9382 64.1812 39.7047 64.3719 39.5137 64.5205C39.2801 64.6903 39.046 64.8819 38.8125 65.0518C38.3881 65.3701 37.9424 65.6883 37.4756 65.9854C37.2208 66.1552 36.9447 66.3255 36.6475 66.5166C36.4989 66.6227 36.3289 66.7071 36.1592 66.792L35.9043 66.9199C35.6709 67.0472 35.4374 67.1747 35.1191 67.3232C34.9706 67.4081 34.8431 67.4715 34.7158 67.5352L34.7793 67.5566C34.6944 67.5779 34.6301 67.6204 34.5664 67.6416C34.4179 67.7053 34.2481 67.7899 34.0996 67.8535C33.569 67.8535 33.0171 67.8327 32.4229 67.8115H32.2744C31.4677 67.7903 30.6817 67.7048 29.875 67.5986C14.1017 65.5605 1.85254 52.5684 0.791016 36.6465C0.72734 35.9673 0.706063 35.3092 0.706055 34.4814C0.790939 34.2905 0.854865 34.0992 0.960938 33.9082L1.38574 33.0371C1.44937 32.9099 1.5131 32.8035 1.61914 32.6338C1.61983 32.612 1.72019 32.4298 1.72461 32.4219C1.7883 32.3157 1.85207 32.2302 1.89453 32.124C2.12799 31.7208 2.36154 31.3176 2.61621 30.9355L3.42285 29.7676C3.93234 29.0883 4.46368 28.4301 5.01562 27.8145C5.18535 27.6235 5.37647 27.4328 5.56738 27.2207C5.56738 27.1996 5.6098 27.1783 5.61035 27.1572C5.80142 26.9449 5.99232 26.7531 6.24707 26.5195C6.3318 26.4348 6.39563 26.3713 6.54395 26.2441L6.84082 25.9678C7.05307 25.7555 7.26593 25.5649 7.60547 25.2891C7.79653 25.1192 7.98791 24.9494 8.2002 24.8008C8.7097 24.3974 9.21901 24.0145 9.72852 23.6748L9.9834 23.5049C10.153 23.3989 10.3229 23.2932 10.5137 23.166C11.2567 22.699 12.0639 22.2742 12.9131 21.8496L15.3965 20.8301L17.1162 20.2998C17.2436 20.2573 17.3502 20.2151 17.6475 20.1514C17.7534 20.1301 17.8593 20.0876 17.9863 20.0664L18.1992 20.0234C18.3688 19.981 18.5384 19.9392 18.708 19.918C18.7505 19.8967 18.7935 19.8965 18.8359 19.8965C18.9208 19.8753 18.9849 19.8535 19.0273 19.8535C19.0507 19.853 19.2579 19.8121 19.2812 19.8115C19.4723 19.7691 19.685 19.7261 19.9609 19.6836C20.0882 19.6624 20.2155 19.6416 20.3428 19.6416L20.6406 19.5986L20.959 19.5566C21.065 19.5354 21.1922 19.5147 21.3193 19.5146L22.8691 19.4082H24.8223ZM34.1426 0.853516C52.5907 0.853672 67.6212 15.8839 67.5576 34.417C67.5576 38.493 66.8359 42.4634 65.3711 46.3271V46.3906C61.5498 56.3897 53.0997 64.0107 42.7822 66.7705C42.7397 66.7916 42.6553 66.792 42.6553 66.792C41.785 67.0255 40.8935 67.2169 40.002 67.3867C40.108 67.323 40.1927 67.2375 40.2988 67.1738C40.5535 66.9828 40.7876 66.7923 41.0635 66.5801C41.297 66.389 41.5517 66.1764 41.7852 65.9854C43.3561 64.6267 44.757 63.1405 45.9883 61.5059C46.1156 61.3361 46.2432 61.1879 46.3281 61.0605C46.9438 60.2114 47.5381 59.2766 48.1113 58.2363C48.175 58.1304 48.2383 58.0668 48.2383 58.0244V58.0029C48.3019 57.8968 48.3453 57.8124 48.3877 57.7275C48.4089 57.7062 48.4512 57.6211 48.4512 57.6211L48.876 56.751C48.876 56.7297 49.0029 56.4531 49.0029 56.4531C49.109 56.2621 49.1944 56.0289 49.2793 55.8379C49.3001 55.8169 49.3205 55.7554 49.3213 55.7529L49.4277 55.498C49.4913 55.3497 49.5757 55.2011 49.6182 55.0527C49.788 54.6281 49.9586 54.1817 50.0859 53.7783C50.1708 53.5237 50.2559 53.269 50.3408 52.9932C50.3619 52.9719 50.3613 52.9294 50.3613 52.9082C50.425 52.7171 50.4888 52.5256 50.5312 52.377L50.7227 51.6768C50.8288 51.2947 50.9131 50.8913 50.998 50.4668L51.2959 48.8105C51.4869 47.4945 51.5713 46.1571 51.5713 44.7773C51.5713 44.3952 51.5508 44.0338 51.5508 43.6729L50.2764 43.7158L51.5293 43.3545C51.5293 43.1212 51.5082 42.9091 51.4658 42.6758V42.3574C51.3809 41.4234 51.2528 40.4892 51.083 39.5977C51.0193 39.258 50.9348 38.918 50.8711 38.5996C50.7862 38.1964 50.6803 37.7717 50.5742 37.3896C50.4681 37.05 50.3615 36.71 50.2129 36.2217C49.852 35.1179 49.4066 33.9927 48.876 32.8252L48.7266 32.5488C48.5993 32.2943 48.4721 32.0608 48.2812 31.7002C48.26 31.679 48.2383 31.6357 48.2383 31.6357L47.75 30.7656C47.1344 29.7043 46.4553 28.7067 45.7549 27.7939C45.5639 27.5393 45.3303 27.2631 45.0332 26.9023C45.0129 26.8821 44.9732 26.8226 44.9697 26.8174L44.4814 26.2656C44.3116 26.0746 44.1627 25.9252 43.9717 25.7129C43.7807 25.5219 43.6105 25.3315 43.4619 25.2041C43.4407 25.1617 43.3774 25.1186 43.335 25.0762C43.0378 24.779 42.7401 24.503 42.4004 24.1846C42.0183 23.8449 41.6148 23.484 41.2539 23.208C41.0418 23.0171 40.851 22.8685 40.6602 22.7412L40.0225 22.2529C39.8739 22.1468 39.7252 22.0401 39.5342 21.8916C38.855 21.4459 38.1759 21.0002 37.4756 20.6182C37.0722 20.3846 36.6685 20.172 36.2227 19.9385L33.5264 18.75C33.293 18.644 33.0386 18.5588 32.8477 18.4951C32.5717 18.389 32.3165 18.3039 32.083 18.2402C30.4908 17.7307 28.8347 17.3702 26.9453 17.1367C26.7755 17.1155 26.6053 17.0938 26.4355 17.0938L26.3086 18.3682L26.2236 17.0732L25.9053 17.0303C25.5444 16.9666 25.1619 16.9668 24.8223 16.9668C24.1218 16.9031 23.4214 16.9243 22.6572 16.9668H22.0205C21.9144 16.9668 21.8082 16.9671 21.7021 16.9883H21.4893L21.0654 17.0303C20.8956 17.0515 20.7037 17.0728 20.3428 17.1152L19.9824 17.1582C19.8126 17.1794 19.621 17.2217 19.5361 17.2217C19.2603 17.2641 19.0057 17.3067 18.6025 17.3916C18.4964 17.4128 18.3688 17.4338 18.2627 17.4551C18.199 17.4763 18.1352 17.4766 18.0928 17.4766C17.9018 17.519 17.7104 17.5616 17.3496 17.6465C17.1639 17.6878 16.9982 17.7486 16.9893 17.752C16.7347 17.7944 16.4797 17.8582 16.3311 17.9219C16.0763 17.9856 15.8209 18.0491 15.46 18.1553L14.5684 18.4531C14.42 18.4955 14.2924 18.5382 14.1016 18.623L13.8262 18.7285L13.5918 18.8135L11.7451 19.6201C10.811 20.0872 9.91926 20.5752 9.13379 21.0635C8.9428 21.1908 8.73105 21.319 8.54004 21.4463L8.26367 21.6162C7.69052 22.0195 7.09638 22.4231 6.58691 22.8477C6.35339 23.0387 6.11905 23.2293 5.94922 23.3779C5.92805 23.3991 5.90723 23.4209 5.90723 23.4209C5.86489 23.4421 5.84312 23.4625 5.80078 23.5049C5.54603 23.7172 5.29114 23.9303 5.05762 24.1426L4.78223 24.3965C4.65486 24.5238 4.52749 24.6307 4.37891 24.7793C4.16661 24.9916 3.95427 25.1827 3.80566 25.3525C3.78443 25.3738 3.7627 25.3945 3.7627 25.3945L3.69922 25.458C3.6791 25.4781 3.65928 25.4989 3.65723 25.501C3.46627 25.7131 3.27494 25.9041 3.08398 26.1162C2.48958 26.7531 1.93697 27.4537 1.40625 28.1543C1.36433 28.1962 1.30237 28.2801 1.30078 28.2822L1.17285 28.4521C2.14941 22.89 4.54839 17.667 8.00879 13.3574C8.03005 13.3362 8.07255 13.3149 8.09375 13.2725C8.22106 13.1663 8.3274 13.0393 8.34863 12.9756C14.7387 5.26931 24.1435 0.853516 34.1426 0.853516Z" fill="url(#paint0_linear_2941_1652)"></path>
  <defs>
    <linearGradient id="paint0_linear_2941_1652" x1="34.1319" y1="0.853516" x2="34.1319" y2="67.8535" gradientUnits="userSpaceOnUse">
      <stop stop-color="#FF6150"></stop>
      <stop offset="1" stop-color="#6B12ED"></stop>
    </linearGradient>
  </defs>
</svg>
