<?xml version="1.0" encoding="UTF-8"?>
<svg xmlns="http://www.w3.org/2000/svg" width="68" height="68" viewBox="0 0 68 68" fill="none">
  <path d="M17.0107 34.8525C25.9057 34.8525 33.1182 42.065 33.1182 50.96C33.118 59.8547 25.9055 67.0664 17.0107 67.0664H0.904297L5.63184 62.3604C2.71064 59.4445 0.904297 55.4134 0.904297 50.9619C0.904498 42.0673 8.11611 34.8557 17.0107 34.8555V34.8525ZM51.7998 34.8525C60.6947 34.8525 67.9072 42.065 67.9072 50.96C67.907 59.8547 60.6946 67.0664 51.7998 67.0664H35.6934L40.4209 62.3604C37.4997 59.4445 35.6934 55.4134 35.6934 50.9619C35.6936 42.0673 42.9052 34.8557 51.7998 34.8555V34.8525ZM51.7998 0.0664062C60.6919 0.0664062 67.907 7.27809 67.9072 16.1729C67.9072 25.0678 60.6947 32.2803 51.7998 32.2803H35.6934L40.4209 27.5713C37.4997 24.6554 35.6934 20.627 35.6934 16.1729C35.6936 7.27822 42.9052 0.0666073 51.7998 0.0664062ZM17.0107 0.0664062C25.9057 0.0664062 33.1182 7.27598 33.1182 16.1709C33.118 25.0656 25.9055 32.2773 17.0107 32.2773H0.904297L5.63184 27.5713C2.71064 24.6554 0.904297 20.627 0.904297 16.1729C0.904489 7.27821 8.1161 0.066598 17.0107 0.0664062Z" fill="url(#paint0_linear_2941_1594)"></path>
  <defs>
    <linearGradient id="paint0_linear_2941_1594" x1="34.4059" y1="0.0664062" x2="34.4059" y2="67.0664" gradientUnits="userSpaceOnUse">
      <stop stop-color="#FF6150"></stop>
      <stop offset="1" stop-color="#6B12ED"></stop>
    </linearGradient>
  </defs>
</svg>
